<svg xmlns="http://www.w3.org/2000/svg" width="500" height="500" viewBox="0 0 500 500" version="1.1"><path d="M 220.635 37.135 C 163.239 44.505, 116.055 90.276, 108.106 146.291 C 106.583 157.021, 106.726 177.766, 108.394 188.040 C 111.202 205.336, 119.141 225.082, 129.178 239.734 C 136.013 249.712, 153.299 266.994, 163.288 273.837 C 178.551 284.293, 200.595 292.805, 217.974 294.953 C 252.929 299.273, 284.906 291.515, 311.965 272.150 C 343.297 249.728, 362.924 215.208, 365.972 177.165 C 369.460 133.631, 351.885 92.229, 318.662 65.712 C 306.131 55.711, 296.682 50.194, 283.402 45.127 C 262.835 37.278, 241.084 34.509, 220.635 37.135 M 218.177 48.074 C 202.611 50.094, 181.241 58.732, 167.435 68.584 C 135.509 91.365, 117.032 127.172, 117.008 166.308 C 116.988 198.773, 129.030 227.759, 152.136 250.865 C 176.102 274.832, 206.994 287.012, 240.500 285.706 C 272.080 284.476, 298.945 272.915, 320.873 251.121 C 343.750 228.384, 355.992 198.886, 355.992 166.500 C 355.992 133.674, 344.172 105.074, 321.049 81.951 C 316.347 77.249, 309.418 71.232, 305.650 68.579 C 291.398 58.544, 271.122 50.401, 254.500 48.036 C 246.339 46.874, 227.266 46.895, 218.177 48.074 M 129.219 159.750 C 128.823 160.713, 128.546 165.100, 128.602 169.500 C 128.712 178.099, 131.257 186.183, 137.162 196.691 C 144.214 209.239, 160.630 222.886, 184.500 236.044 C 202.558 245.998, 214.998 256.355, 221.859 267.147 L 225.705 273.195 227.277 269.265 C 230.139 262.112, 232.187 249.863, 231.501 244 C 229.206 224.393, 220.695 211.885, 203.914 203.457 C 192.493 197.721, 188.959 194.977, 184.277 188.214 C 178.347 179.648, 175.145 183.109, 178.458 194.503 C 180.427 201.277, 184.268 205.391, 192.926 210 C 200.377 213.967, 202.224 217.404, 197.536 218.580 C 191.928 219.988, 170.211 212.910, 160.479 206.503 C 148.798 198.812, 139.520 184.121, 136.554 168.619 C 135.728 164.301, 134.535 160.145, 133.903 159.384 C 132.320 157.476, 130.081 157.651, 129.219 159.750 M 338.541 161.250 C 337.794 163.037, 336.880 166.300, 336.509 168.500 C 333.921 183.835, 324.763 198.365, 312.332 206.855 C 305.305 211.655, 284.286 218.950, 277.372 218.988 C 274.547 219.004, 272.314 216.301, 273.558 214.369 C 274.076 213.565, 277.650 211.216, 281.500 209.151 C 290.198 204.485, 294.410 198.878, 295.445 190.591 C 296.624 181.156, 294.336 180.480, 288.551 188.554 C 283.761 195.240, 280.847 197.536, 270.489 202.787 C 266.095 205.014, 261.049 207.926, 259.275 209.257 C 254.365 212.941, 248.553 220.773, 245.366 228 C 242.674 234.106, 242.500 235.318, 242.500 248 C 242.500 260.339, 242.722 261.999, 245.077 267.301 L 247.653 273.101 251.256 267.264 C 258.437 255.629, 268.074 247.956, 296.500 231.233 C 315.345 220.147, 322.869 214.155, 331.251 203.559 C 341.280 190.881, 347.540 169.811, 344.025 160.565 C 342.683 157.036, 340.169 157.350, 338.541 161.250 M 199.177 341.183 C 193.362 342.479, 187.698 348.169, 186.166 354.254 C 183.728 363.937, 188.056 372.618, 197.232 376.452 C 207.835 380.883, 220.377 374.363, 222.597 363.266 C 225.402 349.241, 213.476 337.996, 199.177 341.183 M 237.500 340.968 C 230.608 342.541, 228 345.384, 228 351.323 C 228 356.248, 230.708 358.969, 238.599 361.969 C 244.984 364.396, 245.500 364.813, 245.500 367.546 C 245.500 370.139, 245.108 370.538, 242.296 370.810 C 239.928 371.039, 238.756 370.582, 237.805 369.060 C 236.057 366.260, 228 366.028, 228 368.777 C 228 373.504, 234.581 378, 241.500 378 C 249.510 378, 255 373.479, 255 366.882 C 255 362.132, 252.093 359.305, 243.815 356.006 C 238.453 353.868, 237.453 353.079, 237.187 350.779 C 236.929 348.545, 237.354 347.949, 239.606 347.384 C 241.732 346.851, 242.734 347.188, 244.125 348.906 C 245.581 350.704, 246.755 351.056, 250.459 350.807 L 255.005 350.500 253.253 347.001 C 250.761 342.027, 244.078 339.468, 237.500 340.968 M 427.329 341.458 C 422.448 343.581, 420.473 349.278, 422.988 353.978 C 423.783 355.464, 423.296 356.504, 420.488 359.312 C 414.814 364.986, 415.970 372.864, 423.011 376.506 C 426.798 378.464, 433.944 378.406, 439.015 376.377 C 442.757 374.880, 443.210 374.880, 444.864 376.377 C 446.003 377.408, 448.439 378, 451.537 378 L 456.416 378 452.126 373.629 L 447.836 369.257 450.435 364.129 L 453.034 359 449.074 359 C 446.116 359, 444.720 359.562, 443.558 361.220 L 442.003 363.441 436.002 357.502 C 429.990 351.553, 428.440 347.812, 431.500 346.638 C 433.280 345.955, 436 346.843, 436 348.107 C 436 348.598, 437.800 349, 440 349 C 442.200 349, 444 348.520, 444 347.934 C 444 345.523, 441.636 342.746, 438.452 341.415 C 434.263 339.665, 431.425 339.676, 427.329 341.458 M 47 359.500 L 47 378 51 378 L 55 378 55 371 C 55 362.272, 56.754 361.691, 60.750 369.096 C 65.335 377.591, 66.006 378.178, 70.731 377.819 L 74.932 377.500 70.979 370.698 L 67.025 363.896 71.013 360.103 C 75.488 355.845, 76.164 352.152, 73.434 346.872 C 71.193 342.538, 66.634 341, 56.032 341 L 47 341 47 359.500 M 90.200 346.750 C 89.109 349.913, 86.162 358.238, 83.651 365.250 L 79.085 378 83.465 378 C 87.584 378, 87.914 377.791, 89 374.500 L 90.155 371 97.433 371 L 104.711 371 105.638 374.250 C 106.495 377.256, 106.918 377.523, 111.259 377.804 L 115.953 378.108 112.376 368.304 C 110.409 362.912, 107.390 354.563, 105.668 349.750 L 102.536 341 97.360 341 L 92.184 341 90.200 346.750 M 121 359.500 L 121 378 125 378 L 129 378 129 359.500 L 129 341 125 341 L 121 341 121 359.500 M 148 359.500 L 148 378 152 378 L 156 378 156 370 L 156 362 163.500 362 L 171 362 171 370 L 171 378 175.500 378 L 180 378 180 359.500 L 180 341 175.500 341 L 171 341 171 348.544 L 171 356.088 163.750 355.794 L 156.500 355.500 156.206 348.250 L 155.912 341 151.956 341 L 148 341 148 359.500 M 261 359.500 L 261 378 265.500 378 L 270 378 270 371 L 270 364 275.050 364 C 283.909 364, 289 359.803, 289 352.500 C 289 344.011, 284.169 341, 270.550 341 L 261 341 261 359.500 M 295 359.500 L 295 378 299 378 L 303 378 303 359.500 L 303 341 299 341 L 295 341 295 359.500 M 308.187 344.250 C 308.487 347.366, 308.695 347.513, 313.250 347.805 L 318 348.110 318 363.055 L 318 378 322.500 378 L 327 378 327 363.055 L 327 348.110 331.750 347.805 C 336.305 347.513, 336.513 347.366, 336.813 344.250 L 337.127 341 322.500 341 L 307.873 341 308.187 344.250 M 352.497 342.197 C 345.231 361.879, 340 376.545, 340 377.235 C 340 377.719, 341.898 377.977, 344.218 377.807 C 348.030 377.530, 348.526 377.184, 349.374 374.211 L 350.312 370.921 357.871 371.211 L 365.431 371.500 366.360 374.750 C 367.228 377.787, 367.580 378, 371.712 378 C 375.843 378, 376.088 377.852, 375.422 375.750 C 375.030 374.512, 372.129 366.300, 368.975 357.500 L 363.241 341.500 358.109 341.197 C 354.579 340.989, 352.828 341.301, 352.497 342.197 M 381 359.500 L 381 378 391.500 378 L 402 378 402 374.500 L 402 371 396 371 L 390 371 390 356 L 390 341 385.500 341 L 381 341 381 359.500 M 55 353 L 55 358 58.566 358 C 63.623 358, 66 356.454, 66 353.165 C 66 349.313, 64.296 348, 59.300 348 L 55 348 55 353 M 198.888 349.500 C 195.404 351.393, 193.605 356.018, 194.309 361.267 C 195.074 366.971, 198.598 370, 204.467 370 C 210.562 370, 214 365.977, 214 358.846 C 214 354.653, 213.528 353.374, 211.077 350.923 C 207.786 347.632, 203.290 347.107, 198.888 349.500 M 270 353 L 270 358 273.500 358 C 276.931 358, 281 355.251, 281 352.934 C 281 349.644, 278.823 348, 274.465 348 L 270 348 270 353 M 96.485 352.250 C 91.903 364.925, 91.909 365, 97.500 365 C 99.975 365, 102 364.637, 102 364.194 C 102 362.849, 97.848 351, 97.377 351 C 97.135 351, 96.734 351.563, 96.485 352.250 M 355.554 356.750 C 354.558 359.913, 353.527 363.063, 353.264 363.750 C 352.919 364.651, 354.240 365, 358 365 C 361.760 365, 363.081 364.651, 362.736 363.750 C 362.473 363.063, 361.442 359.913, 360.446 356.750 C 359.450 353.587, 358.349 351, 358 351 C 357.651 351, 356.550 353.587, 355.554 356.750 M 426.655 362.829 C 422.988 366.881, 425.592 371.400, 431.593 371.400 C 437.404 371.400, 437.951 369.559, 433.499 364.999 C 431.351 362.799, 429.305 361, 428.952 361 C 428.599 361, 427.565 361.823, 426.655 362.829 M 79.500 414.675 C 74.738 415.716, 71.808 417.470, 70.453 420.091 C 68.748 423.387, 68.582 427.350, 70.033 430.062 C 71.144 432.138, 76.767 435.300, 81.275 436.384 C 85.549 437.411, 88.288 440.594, 86.988 443.023 C 85.555 445.700, 80.445 445.686, 78.768 443 C 77.836 441.509, 76.436 441, 73.259 441 C 68.625 441, 68.252 441.654, 70.456 445.915 C 74.308 453.363, 89.402 453.974, 94.369 446.883 C 96.513 443.823, 96.451 437.761, 94.250 435.128 C 93.287 433.976, 89.355 431.783, 85.511 430.254 C 78.352 427.407, 76.641 425.343, 79.040 422.452 C 80.739 420.405, 83.719 420.649, 85.732 423 C 86.957 424.430, 88.682 425, 91.790 425 C 95.832 425, 96.087 424.843, 95.449 422.750 C 94.667 420.184, 92.232 417.179, 90.011 416.039 C 87.866 414.938, 81.862 414.158, 79.500 414.675 M 6 433.412 L 6 452 10.500 452 L 15 452 15 445 C 15 439.724, 15.339 438, 16.376 438 C 17.133 438, 19.408 441.150, 21.431 445 L 25.109 452 29.555 452 C 32 452, 33.999 451.663, 33.997 451.250 C 33.995 450.837, 32.213 447.575, 30.036 444 C 26.518 438.224, 26.261 437.389, 27.730 436.500 C 32.339 433.711, 34 431.078, 34 426.561 C 34 422.971, 33.395 421.354, 31.084 418.766 L 28.168 415.500 17.084 415.162 L 6 414.823 6 433.412 M 41 433.500 L 41 452 52 452 L 63 452 63 448.500 L 63 445 56 445 L 49 445 49 440.500 L 49 436 55.500 436 L 62 436 62 433 L 62 430 55.500 430 L 49 430 49 426 L 49 422 56 422 L 63 422 63 418.500 L 63 415 52 415 L 41 415 41 433.500 M 103 433.500 L 103 452 114 452 L 125 452 125 448.500 L 125 445 118 445 L 111 445 111 440.500 L 111 436 117 436 L 123 436 123 433 L 123 430 117 430 L 111 430 111 426 L 111 422 118 422 L 125 422 125 418.500 L 125 415 114 415 L 103 415 103 433.500 M 140.200 420.750 C 139.109 423.913, 136.162 432.238, 133.651 439.250 L 129.085 452 133.465 452 C 137.584 452, 137.914 451.791, 139 448.500 L 140.155 445 147.433 445 L 154.711 445 155.638 448.250 C 156.495 451.256, 156.918 451.523, 161.259 451.804 L 165.953 452.108 162.376 442.304 C 160.409 436.912, 157.390 428.563, 155.668 423.750 L 152.536 415 147.360 415 L 142.184 415 140.200 420.750 M 171 433.500 L 171 452 175 452 L 179 452 179 445 C 179 436.272, 180.754 435.691, 184.750 443.096 C 189.335 451.591, 190.006 452.178, 194.731 451.819 L 198.932 451.500 194.979 444.698 L 191.025 437.896 195.013 434.103 C 199.488 429.845, 200.164 426.152, 197.434 420.872 C 195.193 416.538, 190.634 415, 180.032 415 L 171 415 171 433.500 M 212.575 417.266 C 204.866 421.653, 201.844 432.656, 205.896 441.579 C 210.203 451.061, 222.065 454.638, 232.061 449.468 C 234.752 448.077, 238.986 442.753, 238.996 440.750 C 239.005 439.091, 230.748 440.053, 228.273 442 C 224.554 444.926, 218.537 444.682, 215.574 441.486 C 207.573 432.852, 216.327 417.905, 226.316 423.146 C 227.517 423.776, 228.860 424.901, 229.300 425.646 C 230.427 427.555, 239 427.493, 239 425.577 C 239 423.540, 234.258 418.185, 230.931 416.464 C 226.551 414.199, 217.250 414.606, 212.575 417.266 M 246 433.500 L 246 452 250.500 452 L 255 452 255 444 L 255 436 262 436 L 269 436 269 444 L 269 452 273.500 452 L 278 452 278 433.500 L 278 415 273.500 415 L 269 415 269 422.500 L 269 430 262 430 L 255 430 255 422.500 L 255 415 250.500 415 L 246 415 246 433.500 M 303.575 417.266 C 295.866 421.653, 292.844 432.656, 296.896 441.579 C 301.203 451.061, 313.065 454.638, 323.061 449.468 C 325.752 448.077, 329.986 442.753, 329.996 440.750 C 330.005 439.091, 321.748 440.053, 319.273 442 C 315.554 444.926, 309.537 444.682, 306.574 441.486 C 298.573 432.852, 307.327 417.905, 317.316 423.146 C 318.517 423.776, 319.860 424.901, 320.300 425.646 C 321.427 427.555, 330 427.493, 330 425.577 C 330 423.540, 325.258 418.185, 321.931 416.464 C 317.551 414.199, 308.250 414.606, 303.575 417.266 M 337 433.500 L 337 452 348 452 L 359 452 359 448.500 L 359 445 352.500 445 L 346 445 346 440.500 L 346 436 352 436 L 358 436 358 433 L 358 430 352 430 L 346 430 346 426 L 346 422 352.500 422 L 359 422 359 418.500 L 359 415 348 415 L 337 415 337 433.500 M 366 433.500 L 366 452 369.968 452 L 373.937 452 374.218 440.250 L 374.500 428.500 382.404 440.250 L 390.309 452 394.654 452 L 399 452 399 433.500 L 399 415 394.500 415 L 390 415 389.981 426.750 L 389.961 438.500 382.246 426.750 L 374.531 415 370.266 415 L 366 415 366 433.500 M 404 418.500 L 404 422 409 422 L 414 422 414 437 L 414 452 418 452 L 422 452 422 437 L 422 422 427 422 L 432 422 432 418.500 L 432 415 418 415 L 404 415 404 418.500 M 438 433.500 L 438 452 449 452 L 460 452 460 448.500 L 460 445 453 445 L 446 445 446 440.500 L 446 436 452 436 L 458 436 458 433 L 458 430 452 430 L 446 430 446 426 L 446 422 453 422 L 460 422 460 418.500 L 460 415 449 415 L 438 415 438 433.500 M 466 433.500 L 466 452 470.500 452 L 475 452 475 445 C 475 435.783, 476.674 435.781, 481.691 444.993 L 485.500 451.987 490.365 451.993 C 495.174 452, 495.213 451.974, 493.780 449.750 C 492.983 448.512, 491.069 445.329, 489.527 442.676 L 486.723 437.852 490.324 434.884 C 494.663 431.308, 495.811 426.876, 493.704 421.834 C 491.527 416.623, 487.227 415, 475.599 415 L 466 415 466 433.500 M 15 427 L 15 432 18.845 432 C 23.056 432, 26 429.684, 26 426.371 C 26 423.313, 23.987 422, 19.300 422 L 15 422 15 427 M 179 427 L 179 432 182.566 432 C 187.623 432, 190 430.454, 190 427.165 C 190 423.313, 188.296 422, 183.300 422 L 179 422 179 427 M 475 427 L 475 432 478.566 432 C 483.623 432, 486 430.454, 486 427.165 C 486 423.313, 484.296 422, 479.300 422 L 475 422 475 427 M 146.485 426.250 C 141.903 438.925, 141.909 439, 147.500 439 C 149.975 439, 152 438.637, 152 438.194 C 152 436.849, 147.848 425, 147.377 425 C 147.135 425, 146.734 425.563, 146.485 426.250" stroke="none" fill="#2f2484" fill-rule="evenodd"/><path d="M 215 85.500 L 215 107 193.500 107 L 172 107 172 128.500 L 172 150 193.500 150 L 215 150 215 171.500 L 215 193 236.500 193 L 258 193 258 171.500 L 258 150 279.500 150 L 301 150 301 128.500 L 301 107 279.500 107 L 258 107 258 85.500 L 258 64 236.500 64 L 215 64 215 85.500 M 233.123 109.770 C 232.395 111.130, 232.516 112.442, 233.556 114.445 C 235.296 117.799, 235.313 118, 233.860 118 C 233.233 118, 232.150 117.220, 231.454 116.268 C 230.329 114.729, 229.671 114.673, 225.579 115.768 C 223.045 116.445, 217.378 117, 212.986 117 C 206.481 117, 205 117.284, 205 118.531 C 205 120.108, 205.530 120.401, 210.280 121.443 C 211.808 121.778, 214.047 123.189, 215.255 124.578 C 216.701 126.241, 218.313 127.020, 219.975 126.858 C 221.364 126.723, 223.577 127.200, 224.894 127.919 C 226.296 128.683, 228.887 129.010, 231.144 128.707 L 235 128.190 235 133.095 C 235 136.788, 235.371 138, 236.500 138 C 237.741 138, 238 136.133, 238 127.200 C 238 120.811, 238.440 115.960, 239.078 115.322 C 239.671 114.729, 240.009 112.951, 239.828 111.372 C 239.569 109.102, 238.937 108.435, 236.817 108.190 C 234.992 107.979, 233.811 108.484, 233.123 109.770 M 240.698 117.009 C 239.396 118.551, 238.980 120.442, 239.198 123.822 C 239.488 128.318, 239.629 128.512, 242.821 128.819 C 244.647 128.994, 247.149 128.477, 248.380 127.671 C 249.611 126.864, 251.744 126.420, 253.120 126.683 C 254.666 126.978, 256.123 126.557, 256.933 125.580 C 257.655 124.711, 258.842 124, 259.573 124 C 260.303 124, 261.260 123.368, 261.700 122.596 C 262.140 121.824, 263.620 121.037, 264.990 120.846 C 266.359 120.656, 267.624 119.743, 267.800 118.818 C 268.078 117.358, 266.823 117.075, 258.310 116.680 C 252.915 116.430, 247.150 115.921, 245.500 115.549 C 243.142 115.018, 242.114 115.330, 240.698 117.009 M 223.272 131.211 C 220.264 132.662, 219.504 135.595, 221.390 138.473 C 223.553 141.774, 226.398 142.440, 229.541 140.381 L 232.173 138.657 228.911 137.578 C 227.118 136.985, 225.466 135.938, 225.242 135.250 C 224.757 133.766, 226.610 133.561, 227.500 135 C 228.321 136.328, 232.707 136.283, 233.539 134.937 C 234.583 133.248, 230.943 129.993, 228.095 130.068 C 226.668 130.105, 224.497 130.619, 223.272 131.211 M 241.068 131.932 C 239.890 133.110, 239.195 134.507, 239.523 135.036 C 240.306 136.305, 244.710 136.278, 245.500 135 C 246.402 133.541, 248 133.778, 248 135.370 C 248 136.777, 242.996 138.408, 235.090 139.578 C 229.710 140.373, 226 143.743, 226 147.832 C 226 152.534, 228.150 153.548, 233.477 151.357 C 237.008 149.905, 237.993 148.991, 237.996 147.167 C 238.001 144.204, 235.624 144.809, 235.173 147.886 C 234.806 150.388, 232.675 150.234, 232.177 147.670 C 231.807 145.763, 235.649 143.956, 239.815 144.079 C 241.292 144.122, 241.985 144.369, 241.356 144.627 C 240.727 144.885, 240.442 145.976, 240.724 147.051 C 241.139 148.641, 240.195 149.466, 235.662 151.471 C 229.001 154.417, 226.289 157.802, 228.011 161.021 C 228.917 162.714, 229.736 163.038, 231.832 162.532 L 234.500 161.888 232.250 163.501 C 229.536 165.446, 229.050 171, 231.594 171 C 232.470 171, 233.433 170.062, 233.732 168.915 C 234.120 167.432, 234.502 167.194, 235.054 168.088 C 235.540 168.873, 234.925 170.058, 233.416 171.245 C 230.649 173.421, 230.356 175.220, 232.480 176.983 C 233.764 178.049, 233.665 178.470, 231.730 180.162 L 229.500 182.113 231.684 181.056 C 234.739 179.579, 235 179.686, 235 182.418 C 235 185.693, 236.014 188.109, 237.105 187.435 C 237.597 187.131, 238 185.334, 238 183.441 C 238 179.676, 238.213 179.509, 241.066 181.035 C 243.442 182.307, 243.763 180.526, 241.396 179.202 C 240.010 178.426, 239.977 177.995, 241.146 176.022 C 242.192 174.258, 242.222 173.638, 241.276 173.295 C 240.362 172.963, 240.453 172.239, 241.636 170.433 C 243.725 167.245, 242.748 164.665, 239.755 165.463 C 238.515 165.793, 239.188 165.139, 241.250 164.008 C 244.227 162.376, 245 161.364, 245 159.099 C 245 155.669, 243.060 153.718, 240.966 155.042 C 240.160 155.552, 239.050 155.958, 238.500 155.945 C 237.950 155.931, 238.850 155.207, 240.500 154.335 C 245.176 151.864, 247 149.893, 247 147.313 C 247 145.779, 246.222 144.648, 244.808 144.124 C 242.682 143.338, 242.698 143.293, 245.333 142.631 C 250.856 141.245, 254.048 134.945, 250.655 132.128 C 247.811 129.768, 243.323 129.677, 241.068 131.932 M 234 156.987 C 232.861 157.713, 232.758 158.357, 233.571 159.662 C 235.039 162.016, 236.253 162.266, 238.443 160.665 C 239.632 159.796, 240.010 158.825, 239.488 157.981 C 238.872 156.985, 238.472 157.194, 237.868 158.829 C 237.426 160.023, 236.600 161, 236.032 161 C 234.562 161, 234.750 157.268, 236.250 156.662 C 236.938 156.385, 237.050 156.129, 236.500 156.094 C 235.950 156.059, 234.825 156.461, 234 156.987" stroke="none" fill="#e3010f" fill-rule="evenodd"/><path d="M 149.437 69.250 L 146.500 72.500 149.750 69.563 C 152.779 66.825, 153.460 66, 152.687 66 C 152.515 66, 151.052 67.463, 149.437 69.250 M 151.971 81.750 L 145.500 88.500 152.250 82.029 C 158.520 76.018, 159.457 75, 158.721 75 C 158.568 75, 155.530 78.037, 151.971 81.750 M 320.500 82 C 324.320 85.850, 327.671 89, 327.946 89 C 328.221 89, 325.320 85.850, 321.500 82 C 317.680 78.150, 314.329 75, 314.054 75 C 313.779 75, 316.680 78.150, 320.500 82 M 366.286 157.500 C 366.294 160.250, 366.488 161.256, 366.718 159.736 C 366.947 158.216, 366.941 155.966, 366.704 154.736 C 366.467 153.506, 366.279 154.750, 366.286 157.500 M 106.382 166.500 C 106.384 173.100, 106.546 175.670, 106.741 172.211 C 106.937 168.752, 106.936 163.352, 106.738 160.211 C 106.540 157.070, 106.380 159.900, 106.382 166.500 M 127.232 168 C 127.232 169.925, 127.438 170.713, 127.689 169.750 C 127.941 168.787, 127.941 167.213, 127.689 166.250 C 127.438 165.287, 127.232 166.075, 127.232 168 M 345.252 168.500 C 345.263 170.700, 345.468 171.482, 345.707 170.238 C 345.946 168.994, 345.937 167.194, 345.687 166.238 C 345.437 165.282, 345.241 166.300, 345.252 168.500 M 366.300 175 C 366.300 178.025, 366.487 179.262, 366.716 177.750 C 366.945 176.238, 366.945 173.762, 366.716 172.250 C 366.487 170.738, 366.300 171.975, 366.300 175 M 117.232 178 C 117.232 179.925, 117.438 180.713, 117.689 179.750 C 117.941 178.787, 117.941 177.213, 117.689 176.250 C 117.438 175.287, 117.232 176.075, 117.232 178 M 147.500 211 C 150.209 213.750, 152.650 216, 152.925 216 C 153.200 216, 151.209 213.750, 148.500 211 C 145.791 208.250, 143.350 206, 143.075 206 C 142.800 206, 144.791 208.250, 147.500 211 M 193.250 218.689 C 194.213 218.941, 195.787 218.941, 196.750 218.689 C 197.713 218.438, 196.925 218.232, 195 218.232 C 193.075 218.232, 192.287 218.438, 193.250 218.689 M 276.250 218.689 C 277.212 218.941, 278.788 218.941, 279.750 218.689 C 280.712 218.438, 279.925 218.232, 278 218.232 C 276.075 218.232, 275.288 218.438, 276.250 218.689 M 241.336 248 C 241.336 252.125, 241.513 253.813, 241.728 251.750 C 241.944 249.688, 241.944 246.313, 241.728 244.250 C 241.513 242.188, 241.336 243.875, 241.336 248 M 266.417 250.572 L 262.500 254.145 266.750 250.905 C 270.633 247.945, 271.581 247, 270.667 247 C 270.483 247, 268.571 248.608, 266.417 250.572 M 332.437 254.250 L 329.500 257.500 332.750 254.563 C 335.779 251.825, 336.460 251, 335.687 251 C 335.515 251, 334.052 252.463, 332.437 254.250 M 144 258.500 C 147.543 262.075, 150.667 265, 150.942 265 C 151.217 265, 148.543 262.075, 145 258.500 C 141.457 254.925, 138.333 252, 138.058 252 C 137.783 252, 140.457 254.925, 144 258.500 M 324.437 262.250 L 321.500 265.500 324.750 262.563 C 327.779 259.825, 328.460 259, 327.687 259 C 327.515 259, 326.052 260.462, 324.437 262.250 M 225.250 285.689 C 226.213 285.941, 227.787 285.941, 228.750 285.689 C 229.713 285.438, 228.925 285.232, 227 285.232 C 225.075 285.232, 224.287 285.438, 225.250 285.689 M 244.250 285.689 C 245.213 285.941, 246.787 285.941, 247.750 285.689 C 248.713 285.438, 247.925 285.232, 246 285.232 C 244.075 285.232, 243.287 285.438, 244.250 285.689 M 218.250 295.689 C 219.213 295.941, 220.787 295.941, 221.750 295.689 C 222.713 295.438, 221.925 295.232, 220 295.232 C 218.075 295.232, 217.287 295.438, 218.250 295.689 M 251.250 295.689 C 252.213 295.941, 253.787 295.941, 254.750 295.689 C 255.713 295.438, 254.925 295.232, 253 295.232 C 251.075 295.232, 250.287 295.438, 251.250 295.689 M 231.287 296.740 C 234.469 296.939, 239.419 296.937, 242.287 296.736 C 245.154 296.535, 242.550 296.372, 236.500 296.374 C 230.450 296.376, 228.104 296.541, 231.287 296.740 M 46.417 359.500 C 46.418 369.950, 46.566 374.089, 46.746 368.698 C 46.926 363.307, 46.925 354.757, 46.744 349.698 C 46.563 344.639, 46.416 349.050, 46.417 359.500 M 120.417 359.500 C 120.418 369.950, 120.566 374.089, 120.746 368.698 C 120.926 363.307, 120.925 354.757, 120.744 349.698 C 120.563 344.639, 120.416 349.050, 120.417 359.500 M 156.424 348 L 156.500 355.500 163.500 355.566 L 170.500 355.631 163.793 355.273 L 157.086 354.914 156.717 347.707 L 156.349 340.500 156.424 348 M 294.417 359.500 C 294.418 369.950, 294.566 374.089, 294.746 368.698 C 294.926 363.307, 294.925 354.757, 294.744 349.698 C 294.563 344.639, 294.416 349.050, 294.417 359.500 M 437.750 349.706 C 438.988 349.944, 441.012 349.944, 442.250 349.706 C 443.488 349.467, 442.475 349.272, 440 349.272 C 437.525 349.272, 436.512 349.467, 437.750 349.706 M 56.750 357.706 C 57.987 357.944, 60.013 357.944, 61.250 357.706 C 62.487 357.467, 61.475 357.272, 59 357.272 C 56.525 357.272, 55.513 357.467, 56.750 357.706 M 271.762 357.707 C 273.006 357.946, 274.806 357.937, 275.762 357.687 C 276.718 357.437, 275.700 357.241, 273.500 357.252 C 271.300 357.263, 270.518 357.468, 271.762 357.707 M 156.201 370.250 L 156.402 378.500 156.743 370.793 L 157.083 363.086 164.291 362.742 L 171.500 362.397 163.750 362.199 L 156 362 156.201 370.250 M 353 364.250 C 353 364.663, 355.250 365, 358 365 C 360.750 365, 363 364.663, 363 364.250 C 363 363.837, 360.750 363.500, 358 363.500 C 355.250 363.500, 353 363.837, 353 364.250 M 95.264 364.718 C 96.784 364.947, 99.034 364.941, 100.264 364.704 C 101.494 364.467, 100.250 364.279, 97.500 364.286 C 94.750 364.294, 93.744 364.488, 95.264 364.718 M 271.762 364.707 C 273.006 364.946, 274.806 364.937, 275.762 364.687 C 276.718 364.437, 275.700 364.241, 273.500 364.252 C 271.300 364.263, 270.518 364.468, 271.762 364.707 M 219.750 414.706 C 220.988 414.944, 223.012 414.944, 224.250 414.706 C 225.488 414.467, 224.475 414.272, 222 414.272 C 219.525 414.272, 218.512 414.467, 219.750 414.706 M 310.750 414.706 C 311.988 414.944, 314.012 414.944, 315.250 414.706 C 316.488 414.467, 315.475 414.272, 313 414.272 C 310.525 414.272, 309.512 414.467, 310.750 414.706 M 102.417 433.500 C 102.418 443.950, 102.566 448.089, 102.746 442.698 C 102.926 437.307, 102.925 428.757, 102.744 423.698 C 102.563 418.639, 102.416 423.050, 102.417 433.500 M 170.417 433.500 C 170.418 443.950, 170.566 448.089, 170.746 442.698 C 170.926 437.307, 170.925 428.757, 170.744 423.698 C 170.563 418.639, 170.416 423.050, 170.417 433.500 M 359.252 418.500 C 359.263 420.700, 359.468 421.482, 359.707 420.238 C 359.946 418.994, 359.937 417.194, 359.687 416.238 C 359.437 415.282, 359.241 416.300, 359.252 418.500 M 437.417 433.500 C 437.418 443.950, 437.566 448.089, 437.746 442.698 C 437.926 437.307, 437.925 428.757, 437.744 423.698 C 437.563 418.639, 437.416 423.050, 437.417 433.500 M 49.168 425.750 L 49 430 55.750 429.807 L 62.500 429.615 56.308 429.261 L 50.115 428.908 49.726 425.204 L 49.336 421.500 49.168 425.750 M 413.402 437 C 413.402 445.525, 413.556 449.012, 413.743 444.750 C 413.931 440.488, 413.931 433.512, 413.743 429.250 C 413.556 424.988, 413.402 428.475, 413.402 437 M 422.402 437 C 422.402 445.525, 422.556 449.012, 422.743 444.750 C 422.931 440.488, 422.931 433.512, 422.743 429.250 C 422.556 424.988, 422.402 428.475, 422.402 437 M 34.232 426 C 34.232 427.925, 34.438 428.712, 34.689 427.750 C 34.941 426.788, 34.941 425.212, 34.689 424.250 C 34.438 423.288, 34.232 424.075, 34.232 426 M 116.690 429.712 C 122.535 430.071, 122.903 430.243, 123.283 432.796 C 123.651 435.260, 123.678 435.234, 123.593 432.500 L 123.500 429.500 117 429.416 L 110.500 429.331 116.690 429.712 M 258.250 429.728 C 260.313 429.944, 263.688 429.944, 265.750 429.728 C 267.813 429.513, 266.125 429.336, 262 429.336 C 257.875 429.336, 256.188 429.513, 258.250 429.728 M 348.750 429.723 C 350.538 429.945, 353.462 429.945, 355.250 429.723 C 357.038 429.502, 355.575 429.320, 352 429.320 C 348.425 429.320, 346.962 429.502, 348.750 429.723 M 374.382 440.500 C 374.384 447.100, 374.546 449.670, 374.741 446.211 C 374.937 442.752, 374.936 437.352, 374.738 434.211 C 374.540 431.070, 374.380 433.900, 374.382 440.500 M 451.690 429.712 C 457.535 430.071, 457.903 430.243, 458.283 432.796 C 458.651 435.260, 458.678 435.234, 458.593 432.500 L 458.500 429.500 452 429.416 L 445.500 429.331 451.690 429.712 M 16.750 431.706 C 17.988 431.944, 20.012 431.944, 21.250 431.706 C 22.488 431.467, 21.475 431.272, 19 431.272 C 16.525 431.272, 15.512 431.467, 16.750 431.706 M 180.750 431.706 C 181.988 431.944, 184.012 431.944, 185.250 431.706 C 186.488 431.467, 185.475 431.272, 183 431.272 C 180.525 431.272, 179.512 431.467, 180.750 431.706 M 476.750 431.706 C 477.988 431.944, 480.012 431.944, 481.250 431.706 C 482.488 431.467, 481.475 431.272, 479 431.272 C 476.525 431.272, 475.512 431.467, 476.750 431.706 M 49.286 440.500 C 49.294 443.250, 49.488 444.256, 49.718 442.736 C 49.947 441.216, 49.941 438.966, 49.704 437.736 C 49.467 436.506, 49.279 437.750, 49.286 440.500 M 258.250 436.728 C 260.313 436.944, 263.688 436.944, 265.750 436.728 C 267.813 436.513, 266.125 436.336, 262 436.336 C 257.875 436.336, 256.188 436.513, 258.250 436.728 M 145.264 438.718 C 146.784 438.947, 149.034 438.941, 150.264 438.704 C 151.494 438.467, 150.250 438.279, 147.500 438.286 C 144.750 438.294, 143.744 438.488, 145.264 438.718 M 228.405 441.250 L 226.500 443.500 228.695 441.645 C 230.317 440.274, 232.079 439.884, 235.445 440.152 C 237.950 440.351, 240 440.174, 240 439.757 C 240 439.341, 237.820 439, 235.155 439 C 231.362 439, 229.896 439.488, 228.405 441.250 M 319.405 441.250 L 317.500 443.500 319.695 441.645 C 321.317 440.274, 323.079 439.884, 326.445 440.152 C 328.950 440.351, 331 440.174, 331 439.757 C 331 439.341, 328.820 439, 326.155 439 C 322.362 439, 320.896 439.488, 319.405 441.250 M 359.252 448.500 C 359.263 450.700, 359.468 451.482, 359.707 450.238 C 359.946 448.994, 359.937 447.194, 359.687 446.238 C 359.437 445.282, 359.241 446.300, 359.252 448.500" stroke="none" fill="#53226f" fill-rule="evenodd"/><path d="M 0 250.002 L 0 500.004 250.250 499.752 L 500.500 499.500 500.752 249.750 L 501.004 0 250.502 0 L 0 0 0 250.002 M 0.492 250.500 C 0.492 388, 0.608 444.101, 0.750 375.170 C 0.892 306.238, 0.892 193.738, 0.750 125.170 C 0.608 56.601, 0.492 113, 0.492 250.500 M 221.500 36.581 C 220.400 36.837, 215.450 37.776, 210.500 38.669 C 195.252 41.419, 177.777 48.709, 163 58.483 C 153.589 64.709, 134.999 83.241, 128.804 92.575 C 118.878 107.529, 112.043 123.765, 108.275 141.341 C 105.888 152.471, 105.935 181.263, 108.356 191.915 C 118.282 235.577, 145.550 269.064, 185.093 286.157 C 214.776 298.987, 247.676 300.274, 278.500 289.810 C 297.716 283.287, 313.645 273.325, 328.564 258.500 C 346.799 240.380, 358.533 219.063, 364.202 193.759 C 367.387 179.542, 367.412 153.191, 364.255 139 C 353.046 88.619, 314.069 49.600, 264.205 38.842 C 254.913 36.838, 226.804 35.350, 221.500 36.581 M 218.500 48.584 C 194.313 52.320, 173.003 62.768, 154.878 79.778 C 138.385 95.256, 126.717 115.082, 120.811 137.661 C 117.983 148.475, 117.712 150.886, 117.682 165.500 C 117.639 187.287, 120.323 199.382, 129.446 218.500 C 144.305 249.636, 172.009 272.351, 206.329 281.535 C 226.257 286.868, 246.044 286.898, 266.500 281.624 C 312.696 269.714, 347.521 231.003, 354.440 183.872 C 356.506 169.795, 356.407 160.562, 354.043 146.849 C 349.577 120.942, 339.227 100.971, 320.628 82.372 C 293.266 55.011, 256.227 42.756, 218.500 48.584 M 215 85.500 L 215 107 193.500 107 L 172 107 172 128.500 L 172 150 193.500 150 L 215 150 215 171.500 L 215 193 236.500 193 L 258 193 258 171.500 L 258 150 279.500 150 L 301 150 301 128.500 L 301 107 279.500 107 L 258 107 258 85.500 L 258 64 236.500 64 L 215 64 215 85.500 M 233.123 109.770 C 232.395 111.130, 232.516 112.442, 233.556 114.445 C 235.296 117.799, 235.313 118, 233.860 118 C 233.233 118, 232.150 117.220, 231.454 116.268 C 230.329 114.729, 229.671 114.673, 225.579 115.768 C 223.045 116.445, 217.378 117, 212.986 117 C 206.481 117, 205 117.284, 205 118.531 C 205 120.108, 205.530 120.401, 210.280 121.443 C 211.808 121.778, 214.047 123.189, 215.255 124.578 C 216.701 126.241, 218.313 127.020, 219.975 126.858 C 221.364 126.723, 223.577 127.200, 224.894 127.919 C 226.296 128.683, 228.887 129.010, 231.144 128.707 L 235 128.190 235 133.095 C 235 136.788, 235.371 138, 236.500 138 C 237.741 138, 238 136.133, 238 127.200 C 238 120.811, 238.440 115.960, 239.078 115.322 C 239.671 114.729, 240.009 112.951, 239.828 111.372 C 239.569 109.102, 238.937 108.435, 236.817 108.190 C 234.992 107.979, 233.811 108.484, 233.123 109.770 M 240.698 117.009 C 239.396 118.551, 238.980 120.442, 239.198 123.822 C 239.488 128.318, 239.629 128.512, 242.821 128.819 C 244.647 128.994, 247.149 128.477, 248.380 127.671 C 249.611 126.864, 251.744 126.420, 253.120 126.683 C 254.666 126.978, 256.123 126.557, 256.933 125.580 C 257.655 124.711, 258.842 124, 259.573 124 C 260.303 124, 261.260 123.368, 261.700 122.596 C 262.140 121.824, 263.620 121.037, 264.990 120.846 C 266.359 120.656, 267.624 119.743, 267.800 118.818 C 268.078 117.358, 266.823 117.075, 258.310 116.680 C 252.915 116.430, 247.150 115.921, 245.500 115.549 C 243.142 115.018, 242.114 115.330, 240.698 117.009 M 223.272 131.211 C 220.264 132.662, 219.504 135.595, 221.390 138.473 C 223.553 141.774, 226.398 142.440, 229.541 140.381 L 232.173 138.657 228.911 137.578 C 227.118 136.985, 225.466 135.938, 225.242 135.250 C 224.757 133.766, 226.610 133.561, 227.500 135 C 228.321 136.328, 232.707 136.283, 233.539 134.937 C 234.583 133.248, 230.943 129.993, 228.095 130.068 C 226.668 130.105, 224.497 130.619, 223.272 131.211 M 241.068 131.932 C 239.890 133.110, 239.195 134.507, 239.523 135.036 C 240.306 136.305, 244.710 136.278, 245.500 135 C 246.402 133.541, 248 133.778, 248 135.370 C 248 136.777, 242.996 138.408, 235.090 139.578 C 229.710 140.373, 226 143.743, 226 147.832 C 226 152.534, 228.150 153.548, 233.477 151.357 C 237.008 149.905, 237.993 148.991, 237.996 147.167 C 238.001 144.204, 235.624 144.809, 235.173 147.886 C 234.806 150.388, 232.675 150.234, 232.177 147.670 C 231.807 145.763, 235.649 143.956, 239.815 144.079 C 241.292 144.122, 241.985 144.369, 241.356 144.627 C 240.727 144.885, 240.442 145.976, 240.724 147.051 C 241.139 148.641, 240.195 149.466, 235.662 151.471 C 229.001 154.417, 226.289 157.802, 228.011 161.021 C 228.917 162.714, 229.736 163.038, 231.832 162.532 L 234.500 161.888 232.250 163.501 C 229.536 165.446, 229.050 171, 231.594 171 C 232.470 171, 233.433 170.062, 233.732 168.915 C 234.120 167.432, 234.502 167.194, 235.054 168.088 C 235.540 168.873, 234.925 170.058, 233.416 171.245 C 230.649 173.421, 230.356 175.220, 232.480 176.983 C 233.764 178.049, 233.665 178.470, 231.730 180.162 L 229.500 182.113 231.684 181.056 C 234.739 179.579, 235 179.686, 235 182.418 C 235 185.693, 236.014 188.109, 237.105 187.435 C 237.597 187.131, 238 185.334, 238 183.441 C 238 179.676, 238.213 179.509, 241.066 181.035 C 243.442 182.307, 243.763 180.526, 241.396 179.202 C 240.010 178.426, 239.977 177.995, 241.146 176.022 C 242.192 174.258, 242.222 173.638, 241.276 173.295 C 240.362 172.963, 240.453 172.239, 241.636 170.433 C 243.725 167.245, 242.748 164.665, 239.755 165.463 C 238.515 165.793, 239.188 165.139, 241.250 164.008 C 244.227 162.376, 245 161.364, 245 159.099 C 245 155.669, 243.060 153.718, 240.966 155.042 C 240.160 155.552, 239.050 155.958, 238.500 155.945 C 237.950 155.931, 238.850 155.207, 240.500 154.335 C 245.176 151.864, 247 149.893, 247 147.313 C 247 145.779, 246.222 144.648, 244.808 144.124 C 242.682 143.338, 242.698 143.293, 245.333 142.631 C 250.856 141.245, 254.048 134.945, 250.655 132.128 C 247.811 129.768, 243.323 129.677, 241.068 131.932 M 234 156.987 C 232.861 157.713, 232.758 158.357, 233.571 159.662 C 235.039 162.016, 236.253 162.266, 238.443 160.665 C 239.632 159.796, 240.010 158.825, 239.488 157.981 C 238.872 156.985, 238.472 157.194, 237.868 158.829 C 237.426 160.023, 236.600 161, 236.032 161 C 234.562 161, 234.750 157.268, 236.250 156.662 C 236.938 156.385, 237.050 156.129, 236.500 156.094 C 235.950 156.059, 234.825 156.461, 234 156.987 M 128.845 159.250 C 125.267 165.822, 129.173 183.895, 137.063 197.278 C 145.008 210.753, 156.003 219.792, 186 237.508 C 207.147 249.997, 215.889 257.518, 222.148 268.608 L 225.405 274.379 227.618 269.561 C 233.327 257.134, 232.934 237.802, 226.712 225.099 C 221.775 215.020, 215.552 208.983, 203.962 203.029 C 194.068 197.947, 189.337 194.152, 183.445 186.568 C 179.593 181.611, 176.997 182.074, 177.006 187.719 C 177.020 197.629, 181.870 204.643, 192.520 210.158 C 198.912 213.468, 200.605 215.213, 199.366 217.216 C 198.294 218.952, 187.137 217.387, 177.702 214.178 C 159.887 208.119, 149.694 199.540, 142.531 184.577 C 140.141 179.585, 137.882 173.250, 137.510 170.500 C 136.641 164.067, 133.543 157, 131.591 157 C 130.755 157, 129.519 158.012, 128.845 159.250 M 338.607 159.792 C 337.813 161.328, 336.654 165.394, 336.031 168.827 C 332.655 187.445, 320.814 203.160, 304.553 210.605 C 292.432 216.154, 275.205 219.758, 273.556 217.090 C 272.378 215.185, 274.291 213.229, 280.001 210.500 C 290.357 205.550, 296 197.791, 296 188.501 C 296 182.881, 293.701 181.368, 290.804 185.083 C 283.114 194.945, 280.783 196.926, 270.886 202.010 C 259.140 208.043, 253.419 212.902, 248.471 221.048 C 244.365 227.807, 241 239.947, 241 248 C 241 254.027, 243.947 267.112, 246.327 271.655 L 247.754 274.377 249.529 270.944 C 252.848 264.526, 259.163 257.094, 265.840 251.747 C 272.331 246.549, 279.254 242.090, 301.222 228.961 C 320.323 217.545, 331.362 206.865, 338.507 192.886 C 343.108 183.885, 346.361 170.890, 345.481 165.022 C 344.238 156.738, 341.331 154.525, 338.607 159.792 M 196.500 341.896 C 177.815 350.547, 183.512 378, 203.992 378 C 212.382 378, 219.312 373.630, 221.936 366.685 C 224.540 359.795, 222.331 349.320, 217.320 344.788 C 212.030 340.005, 203.226 338.782, 196.500 341.896 M 235.001 341.123 C 228.434 343.742, 225.757 349.578, 228.484 355.325 C 230.069 358.666, 231.351 359.477, 241.264 363.415 C 245.485 365.091, 246.831 367.294, 244.989 369.513 C 243.229 371.634, 239.236 371.351, 237.768 369 C 236.799 367.449, 235.436 367, 231.692 367 C 227.155 367, 226.905 367.135, 227.534 369.250 C 227.902 370.488, 229.501 372.835, 231.087 374.467 C 233.635 377.087, 234.788 377.479, 240.974 377.829 C 247.861 378.218, 248.033 378.167, 251.488 374.712 C 254.451 371.749, 255 370.505, 255 366.755 C 255 361.322, 253.254 359.486, 244.774 356 C 237.573 353.040, 235.531 350.603, 238.441 348.441 C 240.984 346.553, 241.616 346.616, 244 349 C 245.407 350.407, 247.333 351, 250.500 351 C 255.673 351, 256.190 349.783, 252.832 345.514 C 249.007 340.651, 241.080 338.699, 235.001 341.123 M 424.814 342.875 C 422.218 345.194, 421.617 346.470, 421.702 349.479 C 421.760 351.530, 422.290 353.690, 422.878 354.278 C 423.638 355.038, 422.980 356.288, 420.606 358.594 C 414.749 364.282, 415.391 372.586, 421.984 376.428 C 426.279 378.930, 435.206 378.979, 439.948 376.527 C 442.892 375.005, 443.338 374.996, 444.920 376.427 C 446.058 377.457, 448.528 377.993, 452.079 377.979 L 457.500 377.959 452.666 373.729 L 447.832 369.500 450.404 365 C 451.819 362.525, 452.981 360.163, 452.988 359.750 C 452.995 359.337, 451.005 359, 448.567 359 C 445.013 359, 444.009 359.396, 443.500 361 C 443.151 362.100, 442.514 363, 442.085 363 C 440.329 363, 429.870 350.911, 430.187 349.248 C 430.620 346.975, 434.811 346.343, 435.611 348.430 C 436.016 349.485, 437.492 350, 440.107 350 C 443.555 350, 444 349.724, 444 347.589 C 444 343.588, 438.770 340, 432.939 340 C 428.947 340, 427.432 340.536, 424.814 342.875 M 46 359.500 L 46 378 50.500 378 L 55 378 55 371 C 55 365.838, 55.350 364, 56.331 364 C 57.064 364, 59.390 367.150, 61.500 371 L 65.337 378 70.169 378 C 72.826 378, 74.983 377.663, 74.962 377.250 C 74.941 376.837, 73.188 373.587, 71.066 370.026 L 67.208 363.552 70.040 361.829 C 73.736 359.582, 75 357.068, 75 351.966 C 75 348.562, 74.378 347.178, 71.600 344.400 L 68.200 341 57.100 341 L 46 341 46 359.500 M 91.487 342.250 C 83.991 363.055, 80.112 373.947, 79.557 375.750 C 78.910 377.855, 79.158 378, 83.419 378 C 87.690 378, 88.065 377.779, 89.455 374.454 L 90.937 370.907 97.684 371.204 C 104.350 371.496, 104.443 371.540, 105.361 374.750 C 106.244 377.843, 106.524 378, 111.145 378 C 113.815 378, 116 377.811, 116 377.581 C 116 377.351, 113.075 369.163, 109.500 359.386 C 105.925 349.609, 103 341.472, 103 341.305 C 103 341.137, 100.511 341, 97.469 341 C 93.950 341, 91.773 341.455, 91.487 342.250 M 120 359.500 L 120 378 124.500 378 L 129 378 129 359.500 L 129 341 124.500 341 L 120 341 120 359.500 M 148 359.500 L 148 378 152.500 378 L 157 378 157 370.500 L 157 363 164 363 L 171 363 171 370.500 L 171 378 175.500 378 L 180 378 180 359.500 L 180 341 175.500 341 L 171 341 171 348 L 171 355 164 355 L 157 355 157 348 L 157 341 152.500 341 L 148 341 148 359.500 M 261 359.500 L 261 378 265.500 378 L 270 378 270 371.638 L 270 365.275 275.586 364.619 C 278.658 364.258, 282.387 363.334, 283.871 362.566 C 291.241 358.755, 291.219 346.233, 283.835 342.415 C 282.009 341.470, 277.757 341, 271.050 341 L 261 341 261 359.500 M 294 359.500 L 294 378 298.500 378 L 303 378 303 359.500 L 303 341 298.500 341 L 294 341 294 359.500 M 308 344.500 L 308 348 313 348 L 318 348 318 363 L 318 378 322.500 378 L 327 378 327 363 L 327 348 332 348 L 337 348 337 344.500 L 337 341 322.500 341 L 308 341 308 344.500 M 349.274 349.750 C 347.585 354.563, 344.602 362.887, 342.645 368.250 L 339.086 378 343.966 378 C 348.655 378, 348.890 377.864, 350 374.500 L 351.155 371 358 371 L 364.845 371 366 374.500 C 367.106 377.852, 367.358 378, 371.944 378 L 376.734 378 370.117 359.509 L 363.500 341.017 357.923 341.009 L 352.345 341 349.274 349.750 M 381 359.500 L 381 378 391.500 378 L 402 378 402 374.500 L 402 371 396 371 L 390 371 390 356 L 390 341 385.500 341 L 381 341 381 359.500 M 55.667 348.667 C 55.300 349.033, 55 351.058, 55 353.167 L 55 357 59.300 357 C 61.665 357, 64.140 356.460, 64.800 355.800 C 66.637 353.963, 66.228 350.192, 64.066 349.035 C 61.896 347.874, 56.688 347.646, 55.667 348.667 M 200 349.279 C 198.625 349.966, 196.697 352.097, 195.716 354.014 C 190.575 364.063, 202.219 374.876, 210.506 367.748 C 215.974 363.045, 214.687 352.020, 208.360 349.377 C 204.332 347.694, 203.198 347.681, 200 349.279 M 270 352.500 L 270 357 273.800 357 C 278.071 357, 280 355.600, 280 352.500 C 280 349.400, 278.071 348, 273.800 348 L 270 348 270 352.500 M 95.177 356.941 C 93.987 360.464, 93.189 363.522, 93.403 363.736 C 93.617 363.950, 95.567 363.985, 97.738 363.813 L 101.683 363.500 99.512 357.017 L 97.341 350.534 95.177 356.941 M 355.668 357.383 C 354.751 360.294, 354 362.974, 354 363.338 C 354 363.702, 355.800 364, 358 364 C 360.200 364, 362 363.630, 362 363.178 C 362 361.632, 358.814 353.003, 358.075 352.546 C 357.669 352.295, 356.586 354.472, 355.668 357.383 M 426.035 363.934 C 424.629 366.562, 424.729 367.586, 426.571 369.429 C 428.339 371.196, 433.722 371.496, 436 369.955 C 437.248 369.110, 436.842 368.357, 433.583 365.470 C 429.118 361.514, 427.506 361.186, 426.035 363.934 M 75.378 415.437 C 71.102 417.298, 69 420.659, 69 425.634 C 69 429.052, 69.547 430.282, 71.975 432.325 C 73.611 433.702, 76.648 435.367, 78.725 436.026 C 84.157 437.749, 87 439.772, 87 441.916 C 87 445.362, 80.719 446.213, 79 443 C 77.520 440.234, 69 440.045, 69 442.777 C 69 447.811, 75.358 452, 83 452 C 89.586 452, 93.772 449.790, 95.635 445.330 C 98.548 438.360, 95.603 433.809, 85.594 429.811 C 78.563 427.003, 76.548 424.590, 79.441 422.441 C 81.984 420.553, 82.616 420.616, 85 423 C 86.407 424.407, 88.333 425, 91.500 425 C 96.376 425, 96.763 424.375, 94.544 420.085 C 91.759 414.700, 82.327 412.413, 75.378 415.437 M 214.500 415.828 C 206.936 419.436, 204 424.441, 204 433.727 C 204 445.394, 212.078 452.669, 224.069 451.801 C 227.948 451.521, 230.982 450.663, 232.763 449.343 C 235.524 447.298, 240 441.428, 240 439.852 C 240 439.383, 237.927 439, 235.394 439 C 231.941 439, 230.046 439.625, 227.818 441.500 C 223.759 444.915, 219.614 444.768, 215.923 441.077 C 212.550 437.703, 211.959 431.914, 214.489 427.021 C 216.936 422.289, 224.457 421.201, 228.496 424.996 C 230.258 426.652, 231.764 427.051, 235.333 426.810 L 239.911 426.500 238.282 423.149 C 234.611 415.598, 222.681 411.926, 214.500 415.828 M 305.500 415.828 C 297.936 419.436, 295 424.441, 295 433.727 C 295 445.394, 303.078 452.669, 315.069 451.801 C 318.948 451.521, 321.982 450.663, 323.763 449.343 C 326.524 447.298, 331 441.428, 331 439.852 C 331 439.383, 328.927 439, 326.394 439 C 322.941 439, 321.046 439.625, 318.818 441.500 C 314.759 444.915, 310.614 444.768, 306.923 441.077 C 303.550 437.703, 302.959 431.914, 305.489 427.021 C 307.936 422.289, 315.457 421.201, 319.496 424.996 C 321.258 426.652, 322.764 427.051, 326.333 426.810 L 330.911 426.500 329.282 423.149 C 325.611 415.598, 313.681 411.926, 305.500 415.828 M 6 433.500 L 6 452 10.500 452 L 15 452 15 444.917 C 15 436.167, 16.102 436.197, 21.115 445.082 L 24.737 451.500 29.962 451.805 C 32.835 451.974, 34.992 451.749, 34.753 451.305 C 34.515 450.862, 32.617 447.649, 30.536 444.165 L 26.751 437.829 30.338 434.873 C 36.580 429.727, 36.209 420.928, 29.580 416.885 C 27.097 415.371, 24.514 415.007, 16.250 415.004 L 6 415 6 433.500 M 41 433.500 L 41 452 52 452 L 63 452 63 448.500 L 63 445 56.500 445 L 50 445 50 440.500 L 50 436 56 436 L 62 436 62 432.500 L 62 429 56 429 L 50 429 50 425.500 L 50 422 56.500 422 L 63 422 63 418.500 L 63 415 52 415 L 41 415 41 433.500 M 102 433.500 L 102 452 113.500 452 L 125 452 125 448.546 L 125 445.091 118.250 444.796 L 111.500 444.500 111.500 440.500 L 111.500 436.500 117.810 436.201 L 124.119 435.901 123.810 432.701 C 123.501 429.511, 123.479 429.499, 117.250 429.202 L 111 428.905 111 425.452 L 111 422 118 422 L 125 422 125 418.500 L 125 415 113.500 415 L 102 415 102 433.500 M 141.487 416.250 C 133.991 437.055, 130.112 447.947, 129.557 449.750 C 128.910 451.855, 129.158 452, 133.419 452 C 137.690 452, 138.065 451.779, 139.455 448.454 L 140.937 444.907 147.684 445.204 C 154.350 445.496, 154.443 445.540, 155.361 448.750 C 156.244 451.843, 156.524 452, 161.145 452 C 163.815 452, 166 451.811, 166 451.581 C 166 451.351, 163.075 443.163, 159.500 433.386 C 155.925 423.609, 153 415.472, 153 415.305 C 153 415.137, 150.511 415, 147.469 415 C 143.950 415, 141.773 415.455, 141.487 416.250 M 170 433.500 L 170 452 174.500 452 L 179 452 179 445 C 179 439.838, 179.350 438, 180.331 438 C 181.064 438, 183.390 441.150, 185.500 445 L 189.337 452 194.169 452 C 196.826 452, 198.983 451.663, 198.962 451.250 C 198.941 450.837, 197.188 447.587, 195.066 444.026 L 191.208 437.552 194.040 435.829 C 197.736 433.582, 199 431.068, 199 425.966 C 199 422.562, 198.378 421.178, 195.600 418.400 L 192.200 415 181.100 415 L 170 415 170 433.500 M 246 433.500 L 246 452 250.500 452 L 255 452 255 444.500 L 255 437 262 437 L 269 437 269 444.500 L 269 452 273.500 452 L 278 452 278 433.500 L 278 415 273.500 415 L 269 415 269 422 L 269 429 262 429 L 255 429 255 422 L 255 415 250.500 415 L 246 415 246 433.500 M 337 433.500 L 337 452 348.500 452 L 360 452 360 448.500 L 360 445 353 445 L 346 445 346 440.500 L 346 436 352 436 L 358 436 358 432.500 L 358 429 352 429 L 346 429 346 425.500 L 346 422 353 422 L 360 422 360 418.500 L 360 415 348.500 415 L 337 415 337 433.500 M 366 433.500 L 366 452 370.500 452 L 375 452 375 440.757 L 375 429.513 382.513 440.757 L 390.026 452 394.513 452 L 399 452 399 433.500 L 399 415 394.533 415 L 390.066 415 389.783 426.188 L 389.500 437.376 382.295 426.188 L 375.091 415 370.545 415 L 366 415 366 433.500 M 404 418.500 C 404 421.981, 404.024 422, 408.500 422 L 413 422 413 437 L 413 452 418 452 L 423 452 423 437 L 423 422 427.500 422 C 431.976 422, 432 421.981, 432 418.500 L 432 415 418 415 L 404 415 404 418.500 M 437 433.500 L 437 452 448.500 452 L 460 452 460 448.546 L 460 445.091 453.250 444.796 L 446.500 444.500 446.500 440.500 L 446.500 436.500 452.810 436.201 L 459.119 435.901 458.810 432.701 C 458.501 429.511, 458.479 429.499, 452.250 429.202 L 446 428.905 446 425.452 L 446 422 453 422 L 460 422 460 418.500 L 460 415 448.500 415 L 437 415 437 433.500 M 466 433.414 L 466 452 470.500 452 L 475 452 475 445 C 475 435.936, 476.369 435.937, 481.309 445.007 L 485.117 452 490.059 452 C 492.776 452, 495 451.825, 495 451.611 C 495 451.397, 493.210 448.159, 491.023 444.416 L 487.046 437.610 489.705 435.865 C 495.736 431.910, 496.825 424.076, 492.084 418.766 L 489.169 415.500 477.584 415.164 L 466 414.828 466 433.414 M 15 426.500 L 15 431 19.465 431 C 25.064 431, 27.115 428.351, 24.548 424.433 C 23.302 422.531, 22.086 422, 18.977 422 L 15 422 15 426.500 M 179.667 422.667 C 179.300 423.033, 179 425.058, 179 427.167 L 179 431 183.300 431 C 185.665 431, 188.140 430.460, 188.800 429.800 C 190.637 427.963, 190.228 424.192, 188.066 423.035 C 185.896 421.874, 180.688 421.646, 179.667 422.667 M 475 426.500 L 475 431 479.300 431 C 483.872 431, 486 429.688, 486 426.871 C 486 423.988, 483.114 422, 478.929 422 L 475 422 475 426.500 M 145.177 430.941 C 143.987 434.464, 143.189 437.522, 143.403 437.736 C 143.617 437.950, 145.567 437.985, 147.738 437.813 L 151.683 437.500 149.512 431.017 L 147.341 424.534 145.177 430.941" stroke="none" fill="#fafafb" fill-rule="evenodd"/></svg>