<svg xmlns="http://www.w3.org/2000/svg" width="500" height="500" viewBox="0 0 500 500" version="1.1"><path d="M 224 351 C 224 351.550, 222.650 352, 221 352 C 218.667 352, 218 352.444, 218 354 C 218 355.100, 217.550 356, 217 356 C 216.450 356, 216 356.801, 216 357.779 C 216 358.758, 215.100 360.207, 214 361 C 212.122 362.353, 212 363.589, 212 381.221 C 212 393.074, 212.369 400, 213 400 C 213.550 400, 214 401.350, 214 403 C 214 404.650, 214.450 406, 215 406 C 215.550 406, 216 406.900, 216 408 C 216 409.333, 216.667 410, 218 410 C 219.100 410, 220 410.450, 220 411 C 220 411.550, 221.157 412, 222.571 412 C 223.986 412, 225.818 412.675, 226.643 413.500 C 227.468 414.325, 229.429 415, 231 415 C 232.571 415, 234.532 414.325, 235.357 413.500 C 236.182 412.675, 238.014 412, 239.429 412 C 240.843 412, 242 411.550, 242 411 C 242 410.450, 242.927 410, 244.059 410 C 245.191 410, 245.862 409.586, 245.550 409.081 C 245.237 408.575, 245.661 407.482, 246.491 406.652 C 247.321 405.822, 248 403.986, 248 402.571 C 248 401.157, 248.450 400, 249 400 C 249.625 400, 250 394, 250 384 C 250 374, 249.625 368, 249 368 C 248.450 368, 248 365.750, 248 363 C 248 360.250, 247.550 358, 247 358 C 246.450 358, 246 357.293, 246 356.429 C 246 353.823, 243.353 352, 239.571 352 C 237.607 352, 236 351.550, 236 351 C 236 350.444, 233.333 350, 230 350 C 226.667 350, 224 350.444, 224 351 M 266 351 C 266 351.550, 264.462 352, 262.582 352 C 257.640 352, 256 352.899, 256 355.607 C 256 356.923, 255.550 358, 255 358 C 253.284 358, 253.745 374.888, 255.509 376.652 C 256.339 377.482, 256.763 378.575, 256.450 379.081 C 256.138 379.586, 256.778 380, 257.874 380 C 258.987 380, 260.145 380.882, 260.500 382 C 260.883 383.206, 262.013 384, 263.347 384 C 264.563 384, 266.207 384.900, 267 386 C 267.793 387.100, 269.242 388, 270.221 388 C 271.469 388, 272 388.774, 272 390.594 C 272 392.346, 272.649 393.357, 274 393.710 C 277.239 394.557, 276.806 402.285, 273.324 405.767 C 271.613 407.478, 270.501 408.003, 270.241 407.222 C 270.017 406.550, 269.244 406, 268.524 406 C 266.799 406, 266 403.736, 266 398.847 C 266 393.643, 264.217 392, 258.571 392 L 254 392 254 399 C 254 402.850, 254.420 406, 254.934 406 C 255.447 406, 256.010 407.238, 256.184 408.750 C 256.458 411.138, 256.994 411.541, 260.250 411.810 C 262.313 411.981, 264 412.544, 264 413.060 C 264 413.577, 266.700 414, 270 414 C 273.333 414, 276 413.556, 276 413 C 276 412.450, 277.350 412, 279 412 C 280.650 412, 282 411.550, 282 411 C 282 410.450, 283.152 410, 284.559 410 C 286.010 410, 286.851 409.567, 286.500 409 C 286.160 408.450, 286.359 408, 286.941 408 C 287.619 408, 288 404.248, 288 397.582 C 288 386.898, 287.529 384, 285.794 384 C 285.249 384, 283.541 382.650, 282 381 C 280.459 379.350, 278.478 378, 277.599 378 C 276.719 378, 276 377.550, 276 377 C 276 376.450, 275.305 376, 274.455 376 C 272.344 376, 268.004 371.502, 267.985 369.295 C 267.972 367.770, 267.823 367.726, 267 369 C 266.300 370.083, 266.026 369.160, 266.015 365.679 C 266 360.971, 267.542 358, 270 358 C 271.654 358, 274 360.597, 274 362.429 C 274 363.293, 274.450 364, 275 364 C 275.550 364, 276 364.900, 276 366 C 276 367.543, 276.667 368, 278.917 368 C 280.521 368, 282.096 367.438, 282.417 366.750 C 282.883 365.750, 283.117 365.750, 283.583 366.750 C 283.904 367.438, 285.029 368, 286.083 368 C 288.935 368, 288.867 359.067, 286 357 C 284.900 356.207, 284 354.758, 284 353.779 C 284 352.370, 283.168 352, 280 352 C 277.800 352, 276 351.550, 276 351 C 276 350.450, 273.750 350, 271 350 C 268.250 350, 266 350.450, 266 351 M 52 379 C 52 396.333, 51.642 406, 51 406 C 50.450 406, 50 407.350, 50 409 C 50 411.290, 50.454 412, 51.917 412 C 52.971 412, 54.060 412.563, 54.338 413.250 C 54.741 414.250, 54.858 414.250, 54.921 413.250 C 54.972 412.447, 56.609 412, 59.500 412 L 64 412 64 406 C 64 402.667, 64.444 400, 65 400 C 65.583 400, 66 396.667, 66 392 L 66 384 69 384 L 72 384 72 393.917 C 72 400.872, 72.373 404.008, 73.250 404.417 C 74.250 404.883, 74.250 405.117, 73.250 405.583 C 71.453 406.422, 71.710 410.853, 73.670 412.813 C 74.884 414.027, 75.452 414.144, 75.753 413.241 C 76.243 411.770, 82 411.548, 82 413 C 82 413.550, 82.900 414, 84 414 C 85.775 414, 86 413.333, 86 408.083 C 86 404.287, 85.552 401.985, 84.750 401.659 C 83.763 401.259, 83.773 400.960, 84.797 400.238 C 85.711 399.594, 86.006 397.133, 85.797 391.912 C 85.506 384.654, 85.443 384.493, 82.750 384.184 C 81.237 384.010, 80 383.260, 80 382.517 C 80 381.774, 79.438 380.940, 78.750 380.662 C 77.750 380.259, 77.750 380.142, 78.750 380.079 C 79.438 380.036, 80 379.100, 80 378 C 80 376.667, 80.667 376, 82 376 C 83.667 376, 84 375.333, 84 372 C 84 369.800, 84.450 368, 85 368 C 85.550 368, 86 366.200, 86 364 C 86 361.800, 85.550 360, 85 360 C 84.450 360, 84 359.130, 84 358.067 C 84 357.004, 83.100 355.849, 82 355.500 C 80.900 355.151, 80 354.221, 80 353.433 C 80 352.257, 77.485 352, 66 352 L 52 352 52 379 M 96 359.059 C 96 363.510, 95.631 365.890, 95 365.500 C 94.360 365.104, 94 368.323, 94 374.441 C 94 380.147, 93.597 384, 93 384 C 92.407 384, 92 387.667, 92 393 C 92 398.333, 91.593 402, 91 402 C 90.444 402, 90 404.667, 90 408 C 90 413.333, 90.222 414, 92 414 C 93.100 414, 94 413.550, 94 413 C 94 411.548, 99.757 411.770, 100.247 413.241 C 100.548 414.144, 101.116 414.027, 102.330 412.813 C 103.403 411.740, 104 409.508, 104 406.571 L 104 402 108 402 L 112 402 112.015 408.250 C 112.026 412.654, 112.317 414.057, 113 413 C 113.646 412, 113.974 411.917, 113.985 412.750 C 113.995 413.629, 116.075 414, 121 414 L 128 414 128 411 C 128 408.667, 127.556 408, 126 408 C 124.900 408, 124 407.550, 124 407 C 124 406.450, 124.858 406, 125.906 406 C 127.320 406, 127.678 405.483, 127.290 404 C 126.956 402.724, 125.926 402, 124.442 402 C 123.164 402, 121.840 401.550, 121.500 401 C 121.160 400.450, 121.584 400, 122.441 400 C 123.774 400, 123.986 398.221, 123.900 387.750 C 123.838 380.065, 123.502 376.432, 123 378 C 122.405 379.858, 122.174 378.895, 122.100 374.250 C 122.045 370.813, 121.550 368, 121 368 C 120.435 368, 120 365.143, 120 361.429 C 120 352.344, 119.511 352, 106.571 352 L 96 352 96 359.059 M 130 375.917 C 130 394.072, 130.301 399.974, 131.250 400.417 C 132.250 400.883, 132.250 401.117, 131.250 401.583 C 129.767 402.275, 129.557 406, 131 406 C 132.446 406, 132.232 409.756, 130.759 410.247 C 129.856 410.548, 129.973 411.116, 131.188 412.330 C 133.147 414.290, 137.578 414.547, 138.417 412.750 C 138.883 411.750, 139.117 411.750, 139.583 412.750 C 139.904 413.438, 141.029 414, 142.083 414 C 143.546 414, 144 413.290, 144 411 C 144 409.350, 144.450 408, 145 408 C 145.643 408, 146 398, 146 380 L 146 352 138 352 L 130 352 130 375.917 M 170 377.917 C 170 397.672, 170.297 403.972, 171.250 404.417 C 172.250 404.883, 172.250 405.117, 171.250 405.583 C 170.563 405.904, 170 407.479, 170 409.083 L 170 412 177 412 L 184 412 184 400.196 L 184 388.391 188 388.155 L 192 387.919 192 400.959 L 192 414 200 414 L 208 414 208 383 L 208 352 200 352 L 192 352 192 364 C 192 377.246, 191.322 378.413, 186.455 373.545 C 183.970 371.060, 183.167 368, 185 368 C 185.583 368, 186 364.667, 186 360 L 186 352 178 352 L 170 352 170 377.917 M 292 368 C 292 378.192, 292.370 384, 293.018 384 C 293.597 384, 293.960 386.157, 293.860 389 C 293.762 391.750, 293.304 394, 292.841 394 C 292.379 394, 292 398.050, 292 403 L 292 412 299 412 L 306 412 306 400.429 C 306 391.733, 306.355 388.502, 307.429 387.429 C 309.190 385.667, 313.625 385.554, 314.417 387.250 C 314.883 388.250, 315.117 388.250, 315.583 387.250 C 315.904 386.563, 317.029 386, 318.083 386 C 319.137 386, 320 385.606, 320 385.125 C 320 384.644, 321.405 383.969, 323.123 383.625 C 325.908 383.068, 326.097 382.818, 324.873 381.308 C 323.940 380.159, 323.901 379.857, 324.750 380.367 C 325.657 380.912, 326 380.140, 326 377.559 C 326 375.602, 326.450 374, 327 374 C 327.550 374, 328 372.650, 328 371 C 328 369.350, 327.550 368, 327 368 C 326.450 368, 326 365.750, 326 363 C 326 360.250, 325.550 358, 325 358 C 324.450 358, 324 357.293, 324 356.429 C 324 355.564, 323.284 354.141, 322.409 353.266 C 321.054 351.911, 320.672 351.885, 319.833 353.088 C 319.077 354.171, 318.730 354.209, 318.341 353.250 C 317.972 352.341, 314.313 352, 304.917 352 L 292 352 292 368 M 330 368 C 330 378, 330.375 384, 331 384 C 331.584 384, 331.959 387.017, 331.900 391.250 C 331.829 396.405, 331.569 397.778, 331 396 C 330.241 393.631, 330.194 393.671, 330.100 396.750 C 330.045 398.538, 330.450 400, 331 400 C 331.550 400, 332 402.057, 332 404.571 C 332 410.644, 333.538 412, 340.429 412 L 346 412 346 390 C 346 375.771, 345.641 368, 344.984 368 C 344.425 368, 344.069 366.681, 344.192 365.069 C 344.314 363.457, 344.735 362.336, 345.127 362.578 C 345.518 362.820, 346.591 362.266, 347.510 361.347 C 348.923 359.934, 349.322 359.894, 350.091 361.088 C 350.874 362.304, 351.126 362.304, 351.909 361.088 C 352.678 359.894, 353.077 359.934, 354.490 361.347 C 355.409 362.266, 356.644 362.720, 357.235 362.355 C 357.843 361.979, 358.021 362.157, 357.645 362.765 C 357.280 363.356, 357.769 364.626, 358.732 365.589 C 359.989 366.846, 360.132 367.456, 359.241 367.753 C 358.303 368.066, 358 373.523, 358 390.083 L 358 412 365 412 L 372 412 372 388.455 L 372 364.909 374.426 362.483 C 376.059 360.850, 377.014 360.456, 377.347 361.278 C 377.729 362.221, 377.860 362.215, 377.921 361.250 C 377.964 360.563, 379.134 360, 380.519 360 C 382.766 360, 382.964 359.704, 382.350 357.260 C 381.048 352.070, 380.718 352, 357.571 352 L 336 352 336 355 C 336 356.650, 335.550 358, 335 358 C 334.450 358, 334 356.650, 334 355 C 334 352.667, 333.556 352, 332 352 C 330.083 352, 330 352.667, 330 368 M 392 356 C 392 358.200, 391.550 360, 391 360 C 390.429 360, 390 363, 390 367 C 390 370.850, 389.607 374, 389.127 374 C 388.647 374, 388.175 378.387, 388.078 383.750 C 387.980 389.113, 387.473 393.650, 386.950 393.833 C 386.428 394.017, 386 395.479, 386 397.083 C 386 399.333, 386.457 400, 388 400 C 389.100 400, 390 400.450, 390 401 C 390 401.550, 388.650 402, 387 402 C 384.667 402, 384 402.444, 384 404 C 384 405.333, 384.667 406, 386 406 C 387.100 406, 388 406.450, 388 407 C 388 407.550, 387.100 408, 386 408 C 384.444 408, 384 408.667, 384 411 L 384 414 390 414 C 393.333 414, 396 413.556, 396 413 C 396 412.450, 396.900 412, 398 412 C 399.729 412, 400 411.333, 400 407.083 C 400 404.055, 399.520 401.995, 398.750 401.720 C 398.023 401.461, 397.871 400.903, 398.387 400.387 C 398.903 399.871, 399.461 400.023, 399.720 400.750 C 399.966 401.438, 401.286 402, 402.655 402 C 406.134 402, 408 404.245, 408 408.429 C 408 411.929, 408.080 412, 412 412 C 414.200 412, 416 412.450, 416 413 C 416 413.550, 416.900 414, 418 414 C 419.100 414, 420 413.550, 420 413 C 420 412.450, 420.675 412, 421.500 412 C 422.325 412, 423 411.550, 423 411 C 423 410.450, 422.325 410, 421.500 410 C 420.422 410, 420 408.898, 420 406.083 C 420 403.887, 419.451 401.944, 418.750 401.659 C 417.781 401.266, 417.808 400.936, 418.869 400.193 C 419.907 399.467, 420.096 397.571, 419.650 392.367 C 418.819 382.663, 417.923 378, 416.891 378 C 416.401 378, 416 376.238, 416 374.083 C 416 371.928, 415.438 369.904, 414.750 369.583 C 413.750 369.117, 413.750 368.883, 414.750 368.417 C 416.127 367.774, 416.338 363.742, 415.364 356.640 L 414.728 352 403.364 352 L 392 352 392 356 M 426 368 C 426 378, 425.625 384, 425 384 C 424.417 384, 424 387.333, 424 392 C 424 399.333, 424.167 400, 426 400 C 427.833 400, 428 399.333, 428 392 C 428 387.333, 428.417 384, 429 384 C 429.579 384, 430 387.190, 430 391.571 C 430 399.357, 428.878 402, 425.571 402 C 424.667 402, 424 402.848, 424 404 C 424 405.100, 424.450 406, 425 406 C 425.550 406, 425.993 407.012, 425.985 408.250 C 425.972 410.069, 425.784 410.213, 425 409 C 424.273 407.875, 424.031 408.375, 424.031 411 C 424.031 413.625, 424.273 414.125, 425 413 C 425.646 412, 425.974 411.917, 425.985 412.750 C 425.996 413.670, 428.784 414, 436.545 414 C 446.409 414, 447.250 413.841, 449.545 411.545 C 450.895 410.195, 452 408.600, 452 408 C 452 407.400, 450.895 405.805, 449.545 404.455 C 447.530 402.439, 446.100 402, 441.545 402 C 438.495 402, 436 401.550, 436 401 C 436 400.450, 436.900 400, 438 400 C 439.944 400, 440 399.333, 440 376 L 440 352 433 352 L 426 352 426 368 M 67.250 359.496 C 66.563 360.277, 65.993 362.172, 65.985 363.708 C 65.973 365.878, 65.753 366.166, 65 365 C 64.290 363.901, 64.027 364.638, 64.015 367.750 C 64.007 370.087, 64.450 372, 65 372 C 65.550 372, 66 372.900, 66 374 C 66 375.556, 66.667 376, 69 376 C 71.833 376, 72 375.778, 72 372 C 72 369.800, 72.450 368, 73 368 C 73.550 368, 74 367.100, 74 366 C 74 364.900, 73.550 364, 73 364 C 72.450 364, 72 363.293, 72 362.429 C 72 361.064, 69.732 357.930, 68.821 358.038 C 68.645 358.059, 67.938 358.715, 67.250 359.496 M 228 360 C 228 361.100, 227.550 362, 227 362 C 226.365 362, 226 369.686, 226 383.059 C 226 396.844, 226.345 403.905, 227 403.500 C 227.550 403.160, 228 403.584, 228 404.441 C 228 406.443, 232.608 406.534, 234.571 404.571 C 236.210 402.933, 236.485 400, 235 400 C 234.367 400, 234 392.810, 234 380.429 C 234 364.800, 233.712 360.569, 232.571 359.429 C 230.490 357.347, 228 357.659, 228 360 M 307.900 362.250 C 307.816 365.860, 307.680 366.124, 307 364 C 306.456 362.302, 306.172 364.227, 306.115 370 C 306.057 375.826, 306.336 378.028, 307 377 C 307.784 375.787, 307.972 375.931, 307.985 377.750 C 308.005 380.734, 310.446 380.645, 313.545 377.545 C 315.615 375.476, 316 374.134, 316 368.986 C 316 365.171, 315.625 363.114, 315 363.500 C 314.450 363.840, 314 363.384, 314 362.488 C 314 360.416, 311.616 358, 309.571 358 C 308.405 358, 307.974 359.095, 307.900 362.250 M 108.100 365.750 C 108.045 366.988, 107.550 368, 107 368 C 106.417 368, 106 371.333, 106 376 C 106 380.667, 105.583 384, 105 384 C 104.450 384, 104 385.377, 104 387.059 C 104 388.844, 104.417 389.861, 105 389.500 C 105.595 389.132, 106 390.323, 106 392.441 C 106 396.662, 106.327 396.764, 109.545 393.545 C 112.042 391.049, 113.116 384, 111 384 C 110.428 384, 109.957 380.684, 109.900 376.250 C 109.805 368.801, 108.342 360.275, 108.100 365.750 M 320 369 C 320 371.750, 320.450 374, 321 374 C 321.550 374, 322 371.750, 322 369 C 322 366.250, 321.550 364, 321 364 C 320.450 364, 320 366.250, 320 369 M 402.070 366.250 C 402.032 367.212, 401.550 368, 401 368 C 400.385 368, 400 373, 400 381 C 400 395.299, 400.548 396.362, 405.409 391.500 C 406.784 390.125, 407.367 388.993, 406.705 388.985 C 405.962 388.975, 406.075 388.598, 407 388 C 408.218 387.213, 408.236 387.028, 407.097 387.015 C 406.155 387.005, 406.401 386.387, 407.847 385.133 C 410.014 383.253, 410.863 378, 409 378 C 408.450 378, 408 379.350, 408 381 C 408 382.650, 407.550 384, 407 384 C 406.450 384, 406 382.623, 406 380.941 C 406 379.156, 405.583 378.139, 405 378.500 C 404.384 378.881, 403.973 377.078, 403.930 373.809 C 403.862 368.720, 402.237 362.111, 402.070 366.250 M 227.407 384 C 227.407 393.075, 227.559 396.788, 227.744 392.250 C 227.929 387.712, 227.929 380.288, 227.744 375.750 C 227.559 371.212, 227.407 374.925, 227.407 384 M 242 382 C 242 383.100, 242.450 384, 243 384 C 243.550 384, 244 383.100, 244 382 C 244 380.900, 243.550 380, 243 380 C 242.450 380, 242 380.900, 242 382 M 270 383 C 270 383.550, 270.900 384, 272 384 C 273.100 384, 274 383.550, 274 383 C 274 382.450, 273.100 382, 272 382 C 270.900 382, 270 382.450, 270 383 M 64.300 393 C 64.300 396.025, 64.487 397.262, 64.716 395.750 C 64.945 394.238, 64.945 391.762, 64.716 390.250 C 64.487 388.738, 64.300 389.975, 64.300 393 M 307.232 395 C 307.232 396.925, 307.438 397.712, 307.689 396.750 C 307.941 395.788, 307.941 394.212, 307.689 393.250 C 307.438 392.288, 307.232 393.075, 307.232 395 M 138 401 C 138 401.550, 139.350 402, 141 402 C 142.650 402, 144 401.550, 144 401 C 144 400.450, 142.650 400, 141 400 C 139.350 400, 138 400.450, 138 401 M 414 402 C 414 403.100, 414.450 404, 415 404 C 415.550 404, 416 403.100, 416 402 C 416 400.900, 415.550 400, 415 400 C 414.450 400, 414 400.900, 414 402 M 307.232 407 C 307.232 408.925, 307.438 409.712, 307.689 408.750 C 307.941 407.788, 307.941 406.212, 307.689 405.250 C 307.438 404.288, 307.232 405.075, 307.232 407" stroke="none" fill="#153382" fill-rule="evenodd"/><path d="M 228 81.500 L 228 104 205 104 L 182 104 182 127.086 L 182 150.172 185.750 149.946 C 187.813 149.822, 198.162 149.783, 208.750 149.860 L 228 150 228 171.893 C 228 188.497, 228.302 193.896, 229.250 194.243 C 229.938 194.494, 239.812 194.795, 251.193 194.911 L 271.887 195.122 272.538 191.647 C 272.897 189.736, 273.035 179.584, 272.845 169.086 L 272.500 149.999 292.500 149.901 C 303.500 149.847, 313.625 149.735, 315 149.651 L 317.500 149.500 317.769 126.750 L 318.038 104 295.130 104 L 272.223 104 272.752 87.200 C 273.042 77.960, 272.960 67.835, 272.568 64.700 L 271.856 59 249.928 59 L 228 59 228 81.500 M 247.750 105.785 C 245.545 106.241, 245.372 111.234, 247.500 113 C 248.325 113.685, 249 115.157, 249 116.271 C 249 118.041, 248.606 117.885, 245.882 115.034 L 242.765 111.772 237.768 113.386 C 234.884 114.318, 229.405 115, 224.812 115 C 217.848 115, 216.894 115.213, 217.182 116.706 C 217.389 117.780, 218.954 118.713, 221.402 119.221 C 223.622 119.682, 226.257 121.152, 227.539 122.644 C 229.305 124.699, 230.451 125.161, 232.893 124.802 C 234.602 124.552, 236 124.710, 236 125.154 C 236 125.598, 237.122 126.243, 238.493 126.588 C 241.269 127.284, 240.927 129, 238.012 129 C 235.550 129, 233 131.631, 233 134.170 C 233 135.285, 234.406 137.511, 236.125 139.117 C 238.748 141.567, 239.505 141.832, 240.828 140.768 C 242.127 139.723, 242.105 139.936, 240.702 141.973 C 237.517 146.599, 238.982 151.962, 243.450 152.032 C 245.264 152.060, 245.318 152.204, 243.913 153.282 C 238.765 157.235, 239.842 163.571, 245.500 162.617 C 248.135 162.173, 248.240 162.239, 246.364 163.158 C 243.016 164.798, 241.693 168.601, 243.507 171.370 C 244.332 172.629, 244.708 173.958, 244.343 174.324 C 243.978 174.689, 244.502 175.898, 245.509 177.010 C 247.284 178.971, 247.281 179.075, 245.419 180.484 C 243.560 181.891, 243.571 181.937, 245.775 181.968 C 247.492 181.992, 248.197 182.736, 248.650 185 C 248.980 186.650, 249.655 188, 250.150 188 C 250.645 188, 251.320 186.650, 251.650 185 C 252.061 182.947, 252.842 182, 254.125 182 C 256.246 182, 256.643 180.467, 254.750 179.583 C 253.750 179.117, 253.750 178.883, 254.750 178.417 C 255.438 178.096, 256 176.746, 256 175.417 C 256 174.088, 255.438 172.993, 254.750 172.985 C 253.910 172.974, 253.852 172.729, 254.573 172.235 C 256.323 171.036, 257.061 167.982, 256.054 166.101 C 255.359 164.802, 255.619 163.914, 257.057 162.683 C 259.222 160.829, 259.502 158.806, 257.985 155.971 C 257.331 154.750, 256.352 154.291, 255.235 154.681 C 254.281 155.015, 255.075 154.196, 257 152.862 C 261.312 149.874, 262.547 144.217, 259.085 143.312 C 257.346 142.857, 257.679 142.449, 261.266 140.638 C 264.797 138.855, 265.553 137.949, 265.818 135.185 C 266.179 131.421, 264.637 129, 261.878 129 C 259.389 129, 259.472 127.302, 262 126.500 C 263.100 126.151, 264 125.536, 264 125.133 C 264 124.731, 265.570 124.585, 267.490 124.809 C 270.037 125.106, 271.146 124.782, 271.597 123.608 C 271.936 122.724, 273.011 122, 273.985 122 C 274.958 122, 276.279 121.369, 276.919 120.598 C 277.558 119.827, 279.189 118.919, 280.541 118.579 C 281.893 118.240, 283 117.295, 283 116.481 C 283 115.311, 281.476 114.995, 275.750 114.976 C 269.053 114.954, 264.680 114.330, 259.445 112.649 C 258.060 112.204, 256.651 112.677, 255.128 114.095 C 252.510 116.535, 251.011 115.813, 252.788 112.968 C 254.809 109.732, 254.309 106.289, 251.750 105.828 C 250.512 105.605, 248.713 105.586, 247.750 105.785 M 248 124.500 C 248 126.333, 247.467 127, 246 127 C 243.628 127, 243.416 128.270, 245.500 130 C 246.325 130.685, 247 131.923, 247 132.752 C 247 133.950, 246.065 134.155, 242.456 133.748 C 237.165 133.152, 236.817 134.755, 241.869 136.456 C 243.655 137.057, 244.776 137.890, 244.360 138.307 C 243.184 139.483, 255.104 137.841, 258.750 136.325 C 260.538 135.581, 262 134.481, 262 133.880 C 262 133.215, 261.313 133.084, 260.250 133.546 C 259.288 133.964, 257.375 134.349, 256 134.403 C 252.703 134.531, 252.577 131.019, 255.821 129.402 L 258.142 128.245 255.121 127.192 L 252.100 126.139 251.800 131.310 C 251.559 135.459, 251.125 136.553, 249.603 136.842 C 247.827 137.180, 247.750 136.716, 248.395 129.602 C 248.773 125.421, 248.840 122, 248.542 122 C 248.244 122, 248 123.125, 248 124.500 M 248.335 143.779 C 245.740 144.184, 244.536 146.736, 246.069 148.583 C 246.676 149.314, 246.908 150.340, 246.585 150.863 C 246.255 151.397, 246.863 151.587, 247.975 151.296 C 249.593 150.873, 249.762 150.424, 248.907 148.826 C 248.156 147.423, 248.198 146.467, 249.053 145.436 C 251.047 143.034, 252.293 143.784, 251.650 147 C 251.320 148.650, 251.434 150, 251.903 150 C 253.397 150, 255.199 147.131, 254.458 145.932 C 254.065 145.296, 254.269 144.452, 254.911 144.055 C 256.097 143.322, 252.283 143.162, 248.335 143.779 M 247.126 157.348 C 246.274 158.375, 246.461 159.107, 247.908 160.417 C 249.525 161.880, 250.121 161.942, 251.904 160.828 C 253.057 160.108, 254 159.177, 254 158.759 C 254 157.453, 252.774 157.927, 251.442 159.748 C 249.971 161.760, 248.962 161.151, 248.734 158.113 C 248.545 155.616, 248.558 155.622, 247.126 157.348 M 250.250 174.031 C 249.007 174.531, 248.052 175.733, 248.116 176.718 C 248.225 178.387, 248.261 178.389, 248.689 176.750 C 248.941 175.787, 249.762 175, 250.514 175 C 251.267 175, 252.160 174.550, 252.500 174 C 253.217 172.841, 253.212 172.841, 250.250 174.031" stroke="none" fill="#e3010f" fill-rule="evenodd"/><path d="M 233 30.673 C 221.867 32.459, 212.201 34.730, 205 37.253 C 162.718 52.067, 129.982 86.788, 118.036 129.491 C 106.343 171.295, 115.283 216.929, 141.841 251 C 148.936 260.102, 163.652 273.639, 173.500 280.122 C 198.182 296.370, 220.459 302.986, 250.500 302.990 C 279.552 302.994, 302.607 296.098, 326.437 280.276 C 348.740 265.468, 366.931 243.135, 377.492 217.596 C 387.763 192.759, 389.889 159.597, 382.960 132.280 C 370.002 81.188, 326.258 40.849, 274.153 31.941 C 263.617 30.140, 240.724 29.435, 233 30.673 M 236.465 41.947 C 187.701 47.567, 145.588 81.998, 130.601 128.500 C 125.072 145.658, 123.464 169.543, 126.590 188.074 C 136.566 247.199, 189.960 292.044, 250.322 291.994 C 265.506 291.982, 286.704 287.427, 300.411 281.232 C 315.715 274.316, 326.075 267.251, 337.844 255.705 C 356.333 237.566, 367.835 216.214, 373.523 189.471 C 375.820 178.672, 375.864 156.457, 373.612 144.730 C 363.634 92.770, 324.406 53.311, 273.041 43.567 C 262.912 41.646, 245.698 40.883, 236.465 41.947 M 272.272 100 C 272.272 102.475, 272.467 103.487, 272.706 102.250 C 272.944 101.013, 272.944 98.987, 272.706 97.750 C 272.467 96.513, 272.272 97.525, 272.272 100 M 137.151 158.750 C 133.985 164.780, 135.006 174.748, 140.171 188.235 C 147.430 207.188, 160.275 219.742, 190.551 237.476 C 216.890 252.904, 227.414 261.517, 235.007 273.857 C 236.795 276.763, 238.595 278.772, 239.006 278.321 C 241.326 275.773, 244.229 264.613, 244.731 256.316 C 245.409 245.092, 243.934 236.880, 239.659 228.086 C 234.654 217.792, 227.985 211.422, 215.503 205.011 C 204.224 199.219, 200.068 195.867, 194.957 188.438 C 192.623 185.045, 191.273 183.963, 189.662 184.192 C 187.729 184.467, 187.511 185.085, 187.602 190.037 C 187.788 200.152, 193.344 207.676, 204.591 213.044 C 210.742 215.979, 212.107 217.350, 211.269 219.750 C 209.883 223.725, 184.881 217.388, 172.474 209.917 C 159.503 202.107, 148.910 186.208, 145.636 169.638 C 143.452 158.583, 139.741 153.820, 137.151 158.750 M 357.588 159.250 C 356.152 161.466, 354.688 166.852, 353.499 174.295 C 353.166 176.382, 350.874 182.038, 348.407 186.864 C 340.532 202.273, 329.242 211.235, 309.785 217.525 C 298.651 221.125, 291.022 221.936, 289.180 219.716 C 287.522 217.719, 289.069 216.238, 297.072 212.160 C 306.061 207.580, 310.333 202.531, 311.995 194.525 C 313.479 187.377, 313.054 184.579, 310.427 184.204 C 308.876 183.982, 307.306 185.402, 304.185 189.851 C 299.643 196.327, 294.163 200.411, 281.489 206.766 C 271.876 211.585, 265.144 218.315, 260.974 227.277 C 255.046 240.013, 253.567 252.297, 256.476 264.632 C 258.144 271.707, 260.902 279, 261.909 279 C 262.290 279, 263.571 277.005, 264.755 274.567 C 267.718 268.469, 278.552 257.246, 287.260 251.255 C 291.242 248.515, 300.125 243.015, 307 239.033 C 330.116 225.643, 338.891 219.073, 348.309 208.102 C 357.778 197.072, 365.808 175.984, 364.503 165.577 C 363.445 157.145, 360.624 154.564, 357.588 159.250 M 228.750 349.706 C 229.988 349.944, 232.012 349.944, 233.250 349.706 C 234.488 349.467, 233.475 349.272, 231 349.272 C 228.525 349.272, 227.512 349.467, 228.750 349.706 M 268.750 349.706 C 269.988 349.944, 272.012 349.944, 273.250 349.706 C 274.488 349.467, 273.475 349.272, 271 349.272 C 268.525 349.272, 267.512 349.467, 268.750 349.706 M 221 351 C 219.787 351.784, 219.931 351.972, 221.750 351.985 C 222.988 351.993, 224 351.550, 224 351 C 224 349.747, 222.939 349.747, 221 351 M 236 351.173 C 236 351.628, 237.350 352, 239 352 C 240.650 352, 242 351.826, 242 351.613 C 242 351.401, 240.650 351.029, 239 350.787 C 237.350 350.545, 236 350.718, 236 351.173 M 260.500 351 C 258.896 351.689, 259.242 351.873, 262.250 351.930 C 264.313 351.968, 266 351.550, 266 351 C 266 349.806, 263.279 349.806, 260.500 351 M 276 351 C 276 351.550, 277.462 351.993, 279.250 351.985 C 281.716 351.973, 282.138 351.736, 281 351 C 279.035 349.730, 276 349.730, 276 351 M 50 378.500 C 50 396.167, 50.358 406, 51 406 C 51.642 406, 52 396.343, 52 379.029 L 52 352.058 65.250 351.747 L 78.500 351.437 64.250 351.218 L 50 351 50 378.500 M 106.356 351.747 C 113.946 351.973, 117.632 352.489, 118.606 353.463 C 119.515 354.372, 120 357.143, 120 361.429 C 120 365.595, 120.408 368, 121.115 368 C 122.183 368, 121.830 361.145, 120.380 353.750 L 119.841 351 107.671 351.212 L 95.500 351.425 106.356 351.747 M 133.750 351.732 C 136.088 351.943, 139.912 351.943, 142.250 351.732 C 144.588 351.522, 142.675 351.349, 138 351.349 C 133.325 351.349, 131.412 351.522, 133.750 351.732 M 169 382.500 L 169 414 177.414 414 L 185.828 414 185.932 401.570 C 185.995 394.100, 185.630 388.889, 185.018 388.511 C 184.349 388.098, 184 392.013, 184 399.941 L 184 412 177 412 L 170 412 170 409.083 C 170 407.479, 170.563 405.904, 171.250 405.583 C 172.250 405.117, 172.250 404.883, 171.250 404.417 C 170.297 403.972, 170 397.680, 170 377.957 L 170 352.081 178.250 351.744 L 186.500 351.407 177.750 351.204 L 169 351 169 382.500 M 195.750 351.732 C 198.088 351.943, 201.912 351.943, 204.250 351.732 C 206.588 351.522, 204.675 351.349, 200 351.349 C 195.325 351.349, 193.412 351.522, 195.750 351.732 M 304.750 351.747 C 312.439 351.928, 318 352.466, 318 353.029 C 318 353.563, 318.450 354, 319 354 C 319.550 354, 320 353.325, 320 352.500 C 320 351.227, 317.847 351.033, 305.750 351.218 L 291.500 351.437 304.750 351.747 M 331.750 351.706 C 333.473 352.038, 334 352.826, 334 355.070 C 334 356.681, 334.450 358, 335 358 C 335.550 358, 336 356.650, 336 355 L 336 352 357.571 352 C 380.196 352, 381.156 352.178, 382.276 356.571 C 382.547 357.633, 382.820 356.814, 382.884 354.750 L 383 351 356.250 351.136 C 341.538 351.211, 330.512 351.467, 331.750 351.706 M 390.630 353.250 C 389.706 356.697, 389.887 360, 391 360 C 391.550 360, 392 358.214, 392 356.032 L 392 352.063 403.750 351.747 L 415.500 351.430 403.367 351.215 C 391.545 351.006, 391.218 351.058, 390.630 353.250 M 424.138 367.500 C 424.171 376.583, 424.603 384, 425.099 384 C 425.596 384, 426 376.830, 426 368 L 426 352 433 352 L 440 352 440 376 C 440 399.333, 439.944 400, 438 400 C 436.900 400, 436 400.450, 436 401 C 436 401.550, 437.125 402, 438.500 402 L 441 402 441 376.500 L 441 351 432.540 351 L 424.079 351 424.138 367.500 M 80 353.464 C 80 354.235, 80.900 355.151, 82 355.500 C 83.100 355.849, 84 357.004, 84 358.067 C 84 359.130, 84.450 360, 85 360 C 86.335 360, 86.266 359.415, 84.537 356.072 C 82.903 352.911, 80 351.243, 80 353.464 M 215.794 354.675 C 214.029 356.625, 211.683 362, 212.596 362 C 213.720 362, 216 359.089, 216 357.655 C 216 356.836, 216.518 355.994, 217.150 355.783 C 217.782 355.572, 218.108 354.825, 217.874 354.123 C 217.565 353.196, 216.996 353.347, 215.794 354.675 M 284.032 353.821 C 284.014 354.548, 284.675 355.818, 285.500 356.643 C 287.428 358.571, 287.451 356.978, 285.532 354.441 C 284.611 353.223, 284.052 352.992, 284.032 353.821 M 246 356.500 C 246 357.325, 246.450 358, 247 358 C 247.550 358, 248 360.250, 248 363 C 248 365.750, 248.450 368, 249 368 C 250.476 368, 250.215 362.449, 248.551 358.468 C 247.018 354.798, 246 354.013, 246 356.500 M 254.159 356.703 C 252.907 359.042, 252.251 373.584, 253.348 374.681 C 253.706 375.040, 254 371.471, 254 366.750 C 254 361.170, 254.402 358.033, 255.150 357.783 C 255.782 357.572, 256.083 356.749, 255.818 355.953 C 255.455 354.864, 255.043 355.050, 254.159 356.703 M 324 356.286 C 324 357.229, 324.450 358, 325 358 C 325.550 358, 326 360.250, 326 363 C 326 366.043, 326.441 368, 327.127 368 C 328.837 368, 327.597 358.168, 325.640 356.211 C 324.120 354.692, 324 354.697, 324 356.286 M 67.273 359.471 C 66.272 360.610, 66.450 360.925, 68.239 361.183 C 69.734 361.399, 70.729 362.536, 71.361 364.750 C 72.390 368.353, 74 369.115, 74 366 C 74 364.900, 73.550 364, 73 364 C 72.450 364, 72 363.293, 72 362.429 C 72 361.064, 69.732 357.930, 68.821 358.038 C 68.645 358.059, 67.948 358.704, 67.273 359.471 M 95.272 362 C 95.272 364.475, 95.467 365.488, 95.706 364.250 C 95.944 363.012, 95.944 360.988, 95.706 359.750 C 95.467 358.512, 95.272 359.525, 95.272 362 M 228 359.406 C 228 360.320, 228.700 360.630, 230 360.290 C 231.100 360.002, 232 359.369, 232 358.883 C 232 358.398, 231.100 358, 230 358 C 228.900 358, 228 358.633, 228 359.406 M 267.250 359.496 C 265.966 360.954, 265.434 370.899, 266.709 369.625 C 267.098 369.235, 267.663 366.797, 267.963 364.208 C 268.400 360.443, 268.859 359.559, 270.255 359.794 C 271.215 359.955, 272 359.618, 272 359.044 C 272 357.524, 268.710 357.837, 267.250 359.496 M 308 359.387 C 308 360.163, 309.321 360.967, 311 361.213 C 314.384 361.710, 314.604 361.461, 312.571 359.429 C 310.748 357.605, 308 357.580, 308 359.387 M 347.190 361.560 C 346.470 362.376, 345.550 362.840, 345.147 362.591 C 344.745 362.342, 344.314 363.457, 344.192 365.069 C 344.069 366.681, 344.425 368, 344.984 368 C 345.641 368, 346 375.771, 346 390 L 346 412 340.429 412 C 333.538 412, 332 410.644, 332 404.571 C 332 402.057, 331.550 400, 331 400 C 330.429 400, 330 403, 330 407 L 330 414 338.500 414 L 347 414 347 388.500 L 347 363 351.571 363 C 355.833 363, 356.030 362.887, 354.481 361.338 C 353.070 359.927, 352.669 359.889, 351.833 361.088 C 351.077 362.171, 350.730 362.209, 350.341 361.250 C 349.685 359.635, 348.814 359.720, 347.190 361.560 M 375.211 361.611 C 374.124 362.782, 374.634 363, 378.461 363 C 381.829 363, 383 362.613, 383 361.500 C 383 360.567, 382.056 360, 380.500 360 C 379.125 360, 377.993 360.563, 377.985 361.250 C 377.974 362.150, 377.764 362.181, 377.235 361.361 C 376.702 360.535, 376.145 360.604, 375.211 361.611 M 226 383.059 C 226 396.844, 226.345 403.905, 227 403.500 C 227.550 403.160, 228 403.584, 228 404.441 C 228 406.443, 232.608 406.534, 234.571 404.571 C 236.082 403.061, 236.527 400, 235.237 400 C 234.818 400, 234.030 401.010, 233.487 402.244 C 232.944 403.478, 231.756 404.628, 230.846 404.799 C 227.661 405.397, 226.727 399.047, 227.180 379.869 C 227.412 370.041, 227.241 362, 226.801 362 C 226.360 362, 226 371.477, 226 383.059 M 306.115 370 C 306.057 375.826, 306.336 378.028, 307 377 C 308.142 375.232, 308.142 367.567, 307 364 C 306.456 362.302, 306.172 364.227, 306.115 370 M 388.876 367.500 C 388.532 370.800, 388.420 373.688, 388.626 373.917 C 389.647 375.054, 390.077 372.660, 389.803 367.363 L 389.500 361.500 388.876 367.500 M 314.763 364 C 314.374 364.825, 313.930 367.975, 313.777 371 C 313.516 376.177, 313.338 376.519, 310.750 376.816 C 309.176 376.998, 308 377.746, 308 378.566 C 308 380.798, 310.834 380.257, 313.593 377.498 C 315.817 375.273, 316.061 374.302, 315.784 368.748 C 315.612 365.312, 315.153 363.175, 314.763 364 M 64.015 367.750 C 64.007 370.087, 64.450 372, 65 372 C 66.276 372, 66.276 366.974, 65 365 C 64.290 363.901, 64.027 364.638, 64.015 367.750 M 274 366.500 C 274 368.947, 274.152 368.998, 281.250 368.884 C 285.238 368.820, 287.600 368.543, 286.500 368.268 C 285.400 367.993, 284.128 367.258, 283.674 366.634 C 283.069 365.803, 282.712 365.834, 282.341 366.750 C 282.062 367.438, 280.521 368, 278.917 368 C 276.667 368, 276 367.543, 276 366 C 276 364.900, 275.550 364, 275 364 C 274.450 364, 274 365.125, 274 366.500 M 320 369 C 320 371.750, 320.450 374, 321 374 C 321.550 374, 322 371.750, 322 369 C 322 366.250, 321.550 364, 321 364 C 320.450 364, 320 366.250, 320 369 M 357 388.929 L 357 414 365 414 L 373 414 372.769 388.750 L 372.537 363.500 372.251 387.750 L 371.964 412 364.982 412 L 358 412 358 390.083 C 358 373.523, 358.303 368.066, 359.241 367.753 C 360.133 367.456, 359.993 366.850, 358.741 365.598 C 357.086 363.943, 357 365.100, 357 388.929 M 416.125 366.167 C 416.056 367.083, 415.438 368.096, 414.750 368.417 C 413.750 368.883, 413.750 369.117, 414.750 369.583 C 415.438 369.904, 416 371.928, 416 374.083 C 416 376.238, 416.450 378, 417 378 C 417.550 378, 417.967 376.988, 417.926 375.750 C 417.817 372.441, 416.272 364.217, 416.125 366.167 M 84 372 C 84 375.333, 83.667 376, 82 376 C 80.655 376, 80 376.667, 80 378.035 C 80 379.753, 80.309 379.905, 81.977 379.012 C 83.064 378.430, 84.414 377.094, 84.977 376.043 C 86.290 373.589, 86.306 368, 85 368 C 84.450 368, 84 369.800, 84 372 M 106 374.667 C 106 378.333, 106.164 381.146, 106.365 380.917 C 107.228 379.930, 107.727 368, 106.905 368 C 106.407 368, 106 371, 106 374.667 M 184 370 C 184 371.100, 184.450 372, 185 372 C 185.550 372, 186 371.100, 186 370 C 186 368.900, 185.550 368, 185 368 C 184.450 368, 184 368.900, 184 370 M 211.402 383 C 211.402 391.525, 211.556 395.012, 211.743 390.750 C 211.931 386.488, 211.931 379.512, 211.743 375.250 C 211.556 370.988, 211.402 374.475, 211.402 383 M 400 377.667 C 400 382.983, 400.169 387.146, 400.376 386.917 C 401.345 385.844, 401.943 368, 401.010 368 C 400.400 368, 400 371.828, 400 377.667 M 122.310 374.500 C 122.315 377.800, 122.502 379.029, 122.725 377.232 C 122.947 375.435, 122.943 372.735, 122.715 371.232 C 122.486 369.729, 122.304 371.200, 122.310 374.500 M 268.033 369.795 C 267.987 371.579, 272.563 376, 274.455 376 C 275.305 376, 276 376.450, 276 377 C 276 377.550, 276.719 378, 277.599 378 C 278.478 378, 280.516 379.412, 282.128 381.137 C 283.740 382.863, 285.300 384.033, 285.595 383.738 C 286.398 382.935, 281.102 378.227, 276 375.209 C 273.525 373.745, 270.727 371.637, 269.783 370.524 C 268.732 369.285, 268.054 369.002, 268.033 369.795 M 71 372.917 C 71 373.421, 69.763 374.285, 68.250 374.838 L 65.500 375.842 68.750 375.921 C 71.360 375.984, 72 375.606, 72 374 C 72 372.900, 71.775 372, 71.500 372 C 71.225 372, 71 372.413, 71 372.917 M 92.841 378.500 C 92.200 383.360, 92.413 384.921, 93.559 383.774 C 93.867 383.467, 93.979 381.029, 93.809 378.357 L 93.500 373.500 92.841 378.500 M 188 375 C 188 375.550, 188.900 376, 190 376 C 191.100 376, 192 375.550, 192 375 C 192 374.450, 191.100 374, 190 374 C 188.900 374, 188 374.450, 188 375 M 326 377.559 C 326 380.116, 325.648 380.919, 324.750 380.412 C 323.758 379.852, 323.754 379.981, 324.733 381.037 C 326.337 382.766, 326.956 382.047, 327.674 377.624 C 328.059 375.248, 327.872 374, 327.131 374 C 326.502 374, 326 375.578, 326 377.559 M 386.244 388 C 384.554 402.131, 384.543 402, 387.500 402 C 388.875 402, 390 401.550, 390 401 C 390 400.450, 389.100 400, 388 400 C 386.457 400, 386 399.333, 386 397.083 C 386 395.479, 386.471 394.010, 387.046 393.818 C 387.692 393.603, 387.979 390.414, 387.796 385.485 L 387.500 377.500 386.244 388 M 405.381 383.421 C 405.468 387.765, 405.899 389.450, 407 389.747 C 408.333 390.107, 408.333 390.034, 407 389.091 C 405.667 388.148, 405.667 388.027, 407 388 C 408.103 387.977, 408.175 387.763, 407.272 387.189 C 406.370 386.616, 406.569 386.032, 408.022 384.984 C 410.063 383.513, 410.835 378, 409 378 C 408.450 378, 408 379.350, 408 381 C 408 385.026, 406.238 384.835, 405.695 380.750 C 405.457 378.962, 405.316 380.164, 405.381 383.421 M 242 382 C 242 383.100, 242.450 384, 243 384 C 243.550 384, 244 383.100, 244 382 C 244 380.900, 243.550 380, 243 380 C 242.450 380, 242 380.900, 242 382 M 258 381.500 C 258.685 382.325, 259.626 383, 260.091 383 C 260.556 383, 260.678 382.325, 260.362 381.500 C 260.045 380.675, 259.104 380, 258.271 380 C 257.037 380, 256.987 380.279, 258 381.500 M 80 382.465 C 80 383.333, 80.869 384, 82 384 C 83.100 384, 84 383.791, 84 383.535 C 84 383.280, 83.100 382.589, 82 382 C 80.404 381.146, 80 381.240, 80 382.465 M 270 383 C 270 383.550, 270.900 384, 272 384 C 273.100 384, 274 383.550, 274 383 C 274 382.450, 273.100 382, 272 382 C 270.900 382, 270 382.450, 270 383 M 322.250 383.706 C 321.012 383.944, 320 384.558, 320 385.070 C 320 385.581, 319.100 386, 318 386 C 316.900 386, 316 386.450, 316 387 C 316 387.550, 316.697 388, 317.550 388 C 319.722 388, 325 385.148, 325 383.974 C 325 383.438, 324.887 383.061, 324.750 383.136 C 324.613 383.211, 323.488 383.467, 322.250 383.706 M 67.907 384.873 C 69.231 385.243, 70.662 386.436, 71.087 387.523 C 71.749 389.218, 71.869 389.108, 71.930 386.750 C 71.993 384.280, 71.669 384.010, 68.750 384.100 C 65.858 384.188, 65.765 384.274, 67.907 384.873 M 104 387.059 C 104 388.844, 104.417 389.861, 105 389.500 C 105.550 389.160, 106 387.784, 106 386.441 C 106 385.098, 105.550 384, 105 384 C 104.450 384, 104 385.377, 104 387.059 M 111.272 388 C 111.272 390.475, 111.467 391.488, 111.706 390.250 C 111.944 389.012, 111.944 386.988, 111.706 385.750 C 111.467 384.512, 111.272 385.525, 111.272 388 M 124.110 391.750 C 124.020 398.509, 123.718 400, 122.441 400 C 121.584 400, 121.160 400.450, 121.500 401 C 121.840 401.550, 123.232 402, 124.593 402 C 126.997 402, 127.050 401.848, 126.406 396.750 C 124.846 384.403, 124.225 383.050, 124.110 391.750 M 262.083 384.338 C 262.313 384.524, 264.637 386.120, 267.250 387.886 C 270.822 390.300, 272 390.712, 272 389.548 C 272 388.697, 271.199 388, 270.221 388 C 269.242 388, 267.793 387.100, 267 386 C 266.207 384.900, 264.683 384, 263.613 384 C 262.542 384, 261.854 384.152, 262.083 384.338 M 292 389 C 292 391.750, 292.379 394, 292.841 394 C 293.304 394, 293.762 391.750, 293.860 389 C 293.960 386.157, 293.597 384, 293.018 384 C 292.458 384, 292 386.250, 292 389 M 330.100 388.750 C 330.278 397.229, 331.789 399.328, 331.900 391.250 C 331.959 387.017, 331.584 384, 331 384 C 330.450 384, 330.045 386.137, 330.100 388.750 M 428 392 C 428 399.333, 427.833 400, 426 400 C 424.900 400, 424 400.450, 424 401 C 424 402.485, 426.933 402.210, 428.571 400.571 C 430.252 398.891, 430.637 384, 429 384 C 428.417 384, 428 387.333, 428 392 M 307.250 387.496 C 306.404 388.456, 306 392.648, 306 400.458 L 306 412 299 412 C 295 412, 292 412.429, 292 413 C 292 413.582, 295.284 414, 299.851 414 L 307.702 414 307.437 404.250 C 307.291 398.887, 307.408 393.038, 307.697 391.250 C 308.149 388.455, 308.627 388, 311.111 388 C 312.700 388, 314 387.550, 314 387 C 314 385.486, 308.675 385.877, 307.250 387.496 M 64.300 393 C 64.300 396.025, 64.487 397.262, 64.716 395.750 C 64.945 394.238, 64.945 391.762, 64.716 390.250 C 64.487 388.738, 64.300 389.975, 64.300 393 M 86 393.917 C 86 397.713, 85.552 400.015, 84.750 400.341 C 83.790 400.730, 83.777 401.045, 84.693 401.698 C 85.350 402.165, 86.052 405.237, 86.254 408.524 C 86.456 411.811, 86.707 408.538, 86.811 401.250 C 86.915 393.962, 86.775 388, 86.500 388 C 86.225 388, 86 390.663, 86 393.917 M 288.360 397 C 288.360 402.225, 288.529 404.363, 288.735 401.750 C 288.941 399.137, 288.941 394.863, 288.735 392.250 C 288.529 389.637, 288.360 391.775, 288.360 397 M 90.725 395.391 C 89.997 400.924, 90.274 403.060, 91.553 401.780 C 91.858 401.476, 91.970 398.588, 91.803 395.363 L 91.500 389.500 90.725 395.391 M 253 397.935 C 253 405.205, 254.876 412.383, 255.772 408.538 C 256.023 407.459, 255.727 406.409, 255.114 406.205 C 254.438 405.979, 254 403.111, 254 398.917 L 254 392 258.571 392 C 264.217 392, 266 393.643, 266 398.847 C 266 403.736, 266.799 406, 268.524 406 C 269.244 406, 270.017 406.550, 270.241 407.222 C 270.501 408.003, 271.613 407.478, 273.324 405.767 C 275.440 403.651, 276 402.140, 276 398.545 C 276 395.085, 275.626 394, 274.433 394 C 273.299 394, 273.048 394.577, 273.528 396.087 C 273.892 397.235, 273.897 399.738, 273.538 401.649 C 273.002 404.504, 272.494 405.068, 270.693 404.812 C 268.718 404.531, 268.471 403.828, 268.204 397.750 L 267.909 391 260.454 391 L 253 391 253 397.935 M 106 394 C 106 396.369, 106.634 396.509, 108.571 394.571 C 110.509 392.634, 110.369 392, 108 392 C 106.667 392, 106 392.667, 106 394 M 400 393 C 400 393.550, 400.900 394, 402 394 C 403.100 394, 404 393.550, 404 393 C 404 392.450, 403.100 392, 402 392 C 400.900 392, 400 392.450, 400 393 M 420.127 396.667 C 420.057 398.408, 419.438 400.096, 418.750 400.417 C 417.750 400.883, 417.750 401.117, 418.750 401.583 C 419.438 401.904, 420 403.928, 420 406.083 C 420 408.782, 420.437 410, 421.406 410 C 422.250 410, 422.633 409.300, 422.364 408.250 C 422.118 407.288, 421.542 403.575, 421.085 400 C 420.628 396.425, 420.197 394.925, 420.127 396.667 M 64 406 L 64 412 59.500 412 C 57.025 412, 55 412.450, 55 413 C 55 413.550, 57.475 414, 60.500 414 L 66 414 66 407 C 66 403, 65.571 400, 65 400 C 64.444 400, 64 402.667, 64 406 M 138 401 C 138 401.550, 139.350 402, 141 402 C 142.650 402, 144 401.550, 144 401 C 144 400.450, 142.650 400, 141 400 C 139.350 400, 138 400.450, 138 401 M 212.367 403.084 C 213.613 409.315, 220.105 415, 225.973 415 C 227.902 415, 227.976 414.833, 226.643 413.500 C 225.818 412.675, 223.986 412, 222.571 412 C 221.157 412, 220 411.550, 220 411 C 220 410.450, 219.100 410, 218 410 C 216.667 410, 216 409.333, 216 408 C 216 406.900, 215.550 406, 215 406 C 214.450 406, 214 404.650, 214 403 C 214 401.350, 213.494 400, 212.875 400 C 212.152 400, 211.970 401.101, 212.367 403.084 M 248 402.571 C 248 403.986, 247.321 405.822, 246.491 406.652 C 245.661 407.482, 245.237 408.575, 245.550 409.081 C 245.862 409.586, 245.191 410, 244.059 410 C 242.927 410, 242 410.450, 242 411 C 242 411.550, 240.843 412, 239.429 412 C 238.014 412, 236.182 412.675, 235.357 413.500 C 234.024 414.833, 234.060 414.998, 235.679 414.978 C 239.983 414.926, 245.888 411.139, 247.941 407.115 C 250.174 402.739, 250.581 400, 249 400 C 248.450 400, 248 401.157, 248 402.571 M 398 400.981 C 398 402.225, 402.263 403.327, 404.671 402.705 C 405.708 402.437, 405.093 402.182, 403.250 402.116 C 401.462 402.052, 400 401.550, 400 401 C 400 400.450, 399.550 400, 399 400 C 398.450 400, 398 400.441, 398 400.981 M 414 402 C 414 403.100, 414.450 404, 415 404 C 415.550 404, 416 403.100, 416 402 C 416 400.900, 415.550 400, 415 400 C 414.450 400, 414 400.900, 414 402 M 104 407 C 104 409.750, 103.550 412, 103 412 C 102.450 412, 102 412.450, 102 413 C 102 413.550, 102.675 414, 103.500 414 C 104.606 414, 105.031 412.753, 105.118 409.250 C 105.184 406.637, 105.166 404.111, 105.080 403.636 C 104.994 403.161, 106.516 402.958, 108.462 403.185 C 110.408 403.413, 112 403.239, 112 402.799 C 112 402.360, 110.200 402, 108 402 L 104 402 104 407 M 448 402.571 C 448 402.886, 448.643 403.786, 449.429 404.571 C 451.366 406.509, 452 406.369, 452 404 C 452 402.667, 451.333 402, 450 402 C 448.900 402, 448 402.257, 448 402.571 M 406 405.875 C 406 406.906, 406.281 409.156, 406.625 410.875 C 407.211 413.804, 407.525 414, 411.625 414 C 414.031 414, 416 413.550, 416 413 C 416 412.450, 414.200 412, 412 412 L 408 412 408 408 C 408 405.800, 407.550 404, 407 404 C 406.450 404, 406 404.844, 406 405.875 M 88.843 409.500 C 88.647 411.975, 88.826 414, 89.243 414 C 89.659 414, 90 411.975, 90 409.500 C 90 407.025, 89.820 405, 89.601 405 C 89.381 405, 89.040 407.025, 88.843 409.500 M 124 407 C 124 407.550, 124.900 408, 126 408 C 127.100 408, 128 407.550, 128 407 C 128 406.450, 127.100 406, 126 406 C 124.900 406, 124 406.450, 124 407 M 130 408 C 130 409.100, 130.450 410, 131 410 C 131.550 410, 132 409.100, 132 408 C 132 406.900, 131.550 406, 131 406 C 130.450 406, 130 406.900, 130 408 M 384 407 C 384 407.550, 384.900 408, 386 408 C 387.100 408, 388 407.550, 388 407 C 388 406.450, 387.100 406, 386 406 C 384.900 406, 384 406.450, 384 407 M 424.015 406.750 C 424.024 407.163, 424.467 408.175, 425 409 C 425.784 410.213, 425.972 410.069, 425.985 408.250 C 425.993 407.012, 425.550 406, 425 406 C 424.450 406, 424.007 406.337, 424.015 406.750 M 144 411 C 144 412.650, 144.450 414, 145 414 C 145.550 414, 146 412.650, 146 411 C 146 409.350, 145.550 408, 145 408 C 144.450 408, 144 409.350, 144 411 M 282 411 C 282 411.550, 280.650 412, 279 412 C 277.350 412, 276 412.450, 276 413 C 276 413.556, 273.333 414, 270 414 C 266.667 414, 264 413.556, 264 413 C 264 412.450, 262.538 412.016, 260.750 412.035 L 257.500 412.071 260 413.500 C 263.816 415.682, 276.510 415.406, 281.750 413.027 C 286.401 410.916, 287.082 410, 284 410 C 282.900 410, 282 410.450, 282 411 M 449.250 411.496 C 447.518 413.463, 447.679 414, 450 414 C 451.333 414, 452 413.333, 452 412 C 452 409.672, 451.015 409.491, 449.250 411.496 M 50 413 C 50 413.550, 50.900 414, 52 414 C 53.100 414, 54 413.550, 54 413 C 54 412.450, 53.100 412, 52 412 C 50.900 412, 50 412.450, 50 413 M 76 413 C 76 413.550, 77.350 414, 79 414 C 80.650 414, 82 413.550, 82 413 C 82 412.450, 80.650 412, 79 412 C 77.350 412, 76 412.450, 76 413 M 94 413 C 94 413.550, 95.350 414, 97 414 C 98.650 414, 100 413.550, 100 413 C 100 412.450, 98.650 412, 97 412 C 95.350 412, 94 412.450, 94 413 M 396 413 C 396 413.550, 396.675 414, 397.500 414 C 398.325 414, 399 413.550, 399 413 C 399 412.450, 398.325 412, 397.500 412 C 396.675 412, 396 412.450, 396 413 M 420 413 C 420 413.550, 420.675 414, 421.500 414 C 422.325 414, 423 413.550, 423 413 C 423 412.450, 422.325 412, 421.500 412 C 420.675 412, 420 412.450, 420 413" stroke="none" fill="#232d7a" fill-rule="evenodd"/><path d="M 0 250.002 L 0 500.004 250.250 499.752 L 500.500 499.500 500.752 249.750 L 501.004 0 250.502 0 L 0 0 0 250.002 M 0.492 250.500 C 0.492 388, 0.608 444.101, 0.750 375.170 C 0.892 306.238, 0.892 193.738, 0.750 125.170 C 0.608 56.601, 0.492 113, 0.492 250.500 M 233 30.673 C 221.867 32.459, 212.201 34.730, 205 37.253 C 162.718 52.067, 129.982 86.788, 118.036 129.491 C 106.343 171.295, 115.283 216.929, 141.841 251 C 148.936 260.102, 163.652 273.639, 173.500 280.122 C 198.182 296.370, 220.459 302.986, 250.500 302.990 C 279.552 302.994, 302.607 296.098, 326.437 280.276 C 348.740 265.468, 366.931 243.135, 377.492 217.596 C 387.763 192.759, 389.889 159.597, 382.960 132.280 C 370.002 81.188, 326.258 40.849, 274.153 31.941 C 263.617 30.140, 240.724 29.435, 233 30.673 M 236.465 41.947 C 187.701 47.567, 145.588 81.998, 130.601 128.500 C 125.072 145.658, 123.464 169.543, 126.590 188.074 C 136.566 247.199, 189.960 292.044, 250.322 291.994 C 265.506 291.982, 286.704 287.427, 300.411 281.232 C 315.715 274.316, 326.075 267.251, 337.844 255.705 C 356.333 237.566, 367.835 216.214, 373.523 189.471 C 375.820 178.672, 375.864 156.457, 373.612 144.730 C 363.634 92.770, 324.406 53.311, 273.041 43.567 C 262.912 41.646, 245.698 40.883, 236.465 41.947 M 228 81.481 L 228 104 205 104 L 182 104 182 127.086 L 182 150.172 185.750 149.946 C 187.813 149.822, 198.162 149.783, 208.750 149.860 L 228 150 228 172.519 L 228 195.038 250.250 194.769 L 272.500 194.500 272.769 172.250 L 273.038 150 292.769 149.901 C 303.621 149.847, 313.625 149.735, 315 149.651 L 317.500 149.500 317.769 126.750 L 318.038 104 295.538 104 L 273.038 104 272.769 81.750 L 272.500 59.500 250.250 59.231 L 228 58.962 228 81.481 M 247.692 106.153 C 245.538 107.358, 245.505 111.344, 247.633 113.110 C 249.046 114.283, 249.174 115.995, 248.587 125.815 C 247.955 136.394, 248.030 137.141, 249.704 136.823 C 251.107 136.556, 251.566 135.349, 251.800 131.310 L 252.100 126.139 255.121 127.192 L 258.142 128.245 255.821 129.402 C 252.577 131.019, 252.703 134.531, 256 134.403 C 257.375 134.349, 259.349 133.940, 260.386 133.493 C 261.788 132.890, 262.155 133.044, 261.813 134.091 C 261.276 135.739, 255.452 137.733, 248.845 138.532 C 243.119 139.223, 239 142.662, 239 146.752 C 239 151.227, 242.324 153.348, 245.842 151.119 C 246.956 150.413, 246.960 149.909, 245.867 148.159 C 244.079 145.295, 245.446 144.155, 251.540 143.427 C 254.878 143.029, 256.049 143.152, 255.122 143.806 C 254.364 144.340, 254.065 145.296, 254.458 145.932 C 255.190 147.116, 253.404 150, 251.939 150 C 251.491 150, 251.208 148.899, 251.312 147.554 C 251.415 146.209, 251.050 145.084, 250.500 145.054 C 249.950 145.024, 249.500 146.237, 249.500 147.749 C 249.500 149.781, 248.736 150.891, 246.571 151.999 C 244.960 152.825, 242.781 154.676, 241.728 156.114 C 240.065 158.384, 239.990 159.017, 241.156 160.925 C 242.205 162.640, 243.160 163.012, 245.500 162.617 C 248.276 162.149, 248.330 162.194, 246.228 163.218 C 243.796 164.403, 242.403 168.002, 243.385 170.561 C 243.716 171.422, 244.484 171.819, 245.093 171.443 C 245.849 170.975, 245.826 171.457, 245.020 172.963 C 244.051 174.774, 244.152 175.511, 245.590 177.099 C 247.258 178.943, 247.251 179.098, 245.419 180.484 C 243.256 182.121, 245.061 182.573, 247.834 181.089 C 249.326 180.291, 249.490 180.661, 249.163 184.089 C 248.955 186.274, 249.230 188, 249.788 188 C 250.949 188, 252 185.629, 252 183.012 C 252 181.680, 252.540 181.328, 254 181.710 C 256.151 182.273, 256.827 180.470, 254.750 179.708 C 253.750 179.342, 253.750 178.985, 254.750 177.925 C 255.438 177.196, 256 175.742, 256 174.693 C 256 173.269, 255.557 172.969, 254.250 173.506 C 253.287 173.903, 251.737 174.447, 250.804 174.716 C 249.871 174.985, 248.910 175.947, 248.670 176.853 C 248.288 178.289, 248.217 178.275, 248.116 176.742 C 248.039 175.581, 249.324 174.454, 251.901 173.423 C 255.999 171.783, 257.573 168.940, 256.006 166.011 C 255.369 164.822, 255.670 163.871, 257.057 162.683 C 259.222 160.829, 259.502 158.806, 257.985 155.971 C 257.331 154.750, 256.352 154.291, 255.235 154.681 C 254.281 155.015, 255.075 154.196, 257 152.862 C 261.312 149.874, 262.547 144.217, 259.085 143.312 C 257.346 142.857, 257.679 142.449, 261.266 140.638 C 264.797 138.855, 265.553 137.949, 265.818 135.185 C 266.207 131.130, 264.608 129.010, 261.128 128.968 C 258.583 128.937, 258.563 128.892, 260.500 127.509 C 261.600 126.724, 262.918 125.713, 263.428 125.262 C 263.939 124.812, 265.847 124.617, 267.668 124.830 C 270.040 125.107, 271.155 124.760, 271.597 123.608 C 271.936 122.724, 273.080 122, 274.138 122 C 275.197 122, 276.302 121.375, 276.595 120.612 C 276.888 119.849, 278.449 118.960, 280.064 118.637 C 281.772 118.296, 283 117.412, 283 116.525 C 283 115.298, 281.577 115, 275.718 115 C 271.713 115, 265.975 114.358, 262.968 113.574 C 257.761 112.216, 257.393 112.248, 255.254 114.245 C 252.522 116.795, 251.195 115.873, 252.930 112.630 C 253.627 111.328, 254.040 109.467, 253.849 108.494 C 253.406 106.249, 249.901 104.916, 247.692 106.153 M 237 113.629 C 235.075 114.321, 229.755 114.913, 225.177 114.944 C 217.860 114.993, 216.893 115.208, 217.185 116.720 C 217.402 117.849, 218.978 118.729, 221.776 119.282 C 224.625 119.846, 226.578 120.953, 227.674 122.626 C 228.966 124.597, 230.016 125.066, 232.633 124.840 C 234.460 124.683, 236.504 125.104, 237.177 125.777 C 237.850 126.450, 239.012 127, 239.759 127 C 240.506 127, 240.840 127.450, 240.500 128 C 240.160 128.550, 239.078 129, 238.096 129 C 235.876 129, 233 132.063, 233 134.428 C 233 135.401, 234.396 137.501, 236.101 139.095 L 239.203 141.992 242.270 139.808 L 245.337 137.624 241.979 136.493 C 236.834 134.761, 237.114 133.146, 242.456 133.748 C 246.065 134.155, 247 133.950, 247 132.752 C 247 131.923, 246.325 130.685, 245.500 130 C 243.416 128.270, 243.628 127, 246 127 C 247.739 127, 248 126.333, 248 121.894 C 248 117.544, 247.602 116.475, 245.314 114.675 C 242.052 112.109, 241.442 112.033, 237 113.629 M 247.254 157.181 C 246.235 158.420, 246.356 159.012, 247.920 160.428 C 249.446 161.809, 250.255 161.934, 251.917 161.045 C 254.115 159.868, 254.592 158.484, 253.114 157.570 C 252.626 157.269, 251.993 157.917, 251.707 159.011 C 250.959 161.875, 249.187 161.459, 248.816 158.332 C 248.545 156.045, 248.323 155.881, 247.254 157.181 M 137.151 158.750 C 133.985 164.780, 135.006 174.748, 140.171 188.235 C 147.430 207.188, 160.275 219.742, 190.551 237.476 C 216.890 252.904, 227.414 261.517, 235.007 273.857 C 236.795 276.763, 238.595 278.772, 239.006 278.321 C 241.326 275.773, 244.229 264.613, 244.731 256.316 C 245.409 245.092, 243.934 236.880, 239.659 228.086 C 234.654 217.792, 227.985 211.422, 215.503 205.011 C 204.224 199.219, 200.068 195.867, 194.957 188.438 C 192.623 185.045, 191.273 183.963, 189.662 184.192 C 187.729 184.467, 187.511 185.085, 187.602 190.037 C 187.788 200.152, 193.344 207.676, 204.591 213.044 C 210.742 215.979, 212.107 217.350, 211.269 219.750 C 209.883 223.725, 184.881 217.388, 172.474 209.917 C 159.503 202.107, 148.910 186.208, 145.636 169.638 C 143.452 158.583, 139.741 153.820, 137.151 158.750 M 357.588 159.250 C 356.152 161.466, 354.688 166.852, 353.499 174.295 C 353.166 176.382, 350.874 182.038, 348.407 186.864 C 340.532 202.273, 329.242 211.235, 309.785 217.525 C 298.651 221.125, 291.022 221.936, 289.180 219.716 C 287.522 217.719, 289.069 216.238, 297.072 212.160 C 306.061 207.580, 310.333 202.531, 311.995 194.525 C 313.479 187.377, 313.054 184.579, 310.427 184.204 C 308.876 183.982, 307.306 185.402, 304.185 189.851 C 299.643 196.327, 294.163 200.411, 281.489 206.766 C 271.876 211.585, 265.144 218.315, 260.974 227.277 C 255.046 240.013, 253.567 252.297, 256.476 264.632 C 258.144 271.707, 260.902 279, 261.909 279 C 262.290 279, 263.571 277.005, 264.755 274.567 C 267.718 268.469, 278.552 257.246, 287.260 251.255 C 291.242 248.515, 300.125 243.015, 307 239.033 C 330.116 225.643, 338.891 219.073, 348.309 208.102 C 357.778 197.072, 365.808 175.984, 364.503 165.577 C 363.445 157.145, 360.624 154.564, 357.588 159.250 M 224.123 349.944 C 219.677 351.070, 215.962 353.924, 213.500 358.105 C 211.675 361.202, 211.500 363.298, 211.500 382 C 211.500 400.030, 211.726 402.954, 213.373 406.270 C 216.389 412.338, 220.253 414.443, 229.129 414.850 C 239.307 415.318, 244.952 412.974, 247.990 407.019 C 249.987 403.105, 250.090 401.626, 249.804 381.005 C 249.520 360.598, 249.360 358.953, 247.395 356.320 C 246.238 354.769, 243.947 352.713, 242.305 351.751 C 238.804 349.701, 228.948 348.721, 224.123 349.944 M 264.121 349.944 C 255.419 352.149, 252.623 356.174, 252.600 366.531 C 252.579 375.884, 254.503 379.061, 264.268 385.793 C 270.574 390.140, 272.151 391.771, 273.095 394.924 C 274.539 399.743, 273.208 404.500, 270.417 404.500 C 268.746 404.500, 268.462 403.633, 268.204 397.750 L 267.909 391 260.454 391 L 253 391 253.015 398.250 C 253.032 406.642, 254.220 409.558, 258.912 412.720 C 263.405 415.748, 275.367 415.925, 281.684 413.057 C 287.449 410.439, 289 407.022, 289 396.936 C 289 386.633, 286.917 382.512, 279.061 377.278 C 269.445 370.870, 268 369.176, 268 364.313 C 268 360.435, 268.241 360, 270.383 360 C 272.836 360, 273.958 362.102, 273.986 366.750 C 273.999 368.868, 274.411 369, 281 369 L 288 369 288 363.950 C 288 357.803, 285.948 353.542, 282.008 351.504 C 278.383 349.630, 268.696 348.785, 264.121 349.944 M 50 382.500 L 50 414 58 414 L 66 414 66 399.500 C 66 385.608, 66.085 385, 68.025 385 C 71.107 385, 72 388.833, 72 402.065 L 72 414 79.500 414 L 87 414 86.985 401.250 C 86.969 386.831, 86.212 384.373, 80.986 381.752 C 78.881 380.696, 78.211 380.002, 79.295 380.002 C 80.283 380.001, 82.195 378.895, 83.545 377.545 C 85.747 375.344, 86 374.257, 86 366.996 C 86 357.450, 84.461 353.705, 79.881 352.108 C 78.132 351.499, 70.694 351, 63.351 351 L 50 351 50 382.500 M 95.949 353.250 C 95.921 354.488, 94.204 368.663, 92.134 384.750 L 88.371 414 96.686 414 L 105 414 105.015 409.750 C 105.035 404.414, 106.080 402.734, 109.113 403.163 C 111.236 403.463, 111.533 404.081, 111.802 408.750 L 112.105 414 120.414 414 C 128.469 414, 128.712 413.931, 128.367 411.750 C 128.171 410.512, 126.432 397.800, 124.503 383.500 C 122.574 369.200, 120.751 356.038, 120.452 354.250 L 119.909 351 107.955 351 C 96.239 351, 95.999 351.045, 95.949 353.250 M 130 382.500 L 130 414 138 414 L 146 414 146 382.500 L 146 351 138 351 L 130 351 130 382.500 M 169 382.500 L 169 414 177.500 414 L 186 414 186 401 L 186 388 189 388 L 192 388 192 401 L 192 414 200 414 L 208 414 208 382.500 L 208 351 200 351 L 192 351 192 362.500 L 192 374 189 374 L 186 374 186 362.500 L 186 351 177.500 351 L 169 351 169 382.500 M 292 382.500 L 292 414 300 414 L 308 414 308 401 L 308 388 313.550 388 C 325.108 388, 328.372 383.394, 327.841 367.829 L 327.500 357.843 323.765 354.422 L 320.029 351 306.015 351 L 292 351 292 382.500 M 330 382.500 L 330 414 338.500 414 L 347 414 347 388.500 L 347 363 352 363 L 357 363 357 388.500 L 357 414 364.983 414 L 372.966 414 373.233 388.750 L 373.500 363.500 378.250 363.195 L 383 362.890 383 356.945 L 383 351 356.500 351 L 330 351 330 382.500 M 390.544 354.250 C 390.057 357.145, 383 412.687, 383 413.623 C 383 413.830, 386.552 414, 390.893 414 C 399.686 414, 400 413.756, 400 406.918 C 400 403.231, 400.177 403, 403 403 C 405.491 403, 406 403.403, 406 405.375 C 406 406.681, 406.281 409.156, 406.625 410.875 L 407.250 414 415.256 414 L 423.262 414 422.751 410.750 C 422.471 408.962, 420.525 394.788, 418.428 379.250 L 414.615 351 402.853 351 L 391.091 351 390.544 354.250 M 424 382.500 L 424 414 438 414 L 452 414 452 408 L 452 402 446.500 402 L 441 402 441 376.500 L 441 351 432.500 351 L 424 351 424 382.500 M 228.667 360.667 C 228.300 361.033, 228 370.653, 228 382.044 C 228 399.234, 228.255 402.967, 229.500 404 C 230.697 404.993, 231.303 404.993, 232.500 404 C 233.741 402.970, 234 399.336, 234 382.959 C 234 372.072, 233.727 362.452, 233.393 361.582 C 232.781 359.988, 229.903 359.431, 228.667 360.667 M 66 368 C 66 375.415, 67.097 376.760, 70.429 373.429 C 73.506 370.351, 71.698 361, 68.025 361 C 66.185 361, 66 361.638, 66 368 M 308 369.066 L 308 377.133 310.750 376.816 C 313.420 376.509, 313.509 376.300, 313.799 369.590 C 314.109 362.447, 313.448 361.048, 309.750 361.015 C 308.227 361.002, 308 362.045, 308 369.066 M 107.738 369 C 107.357 372.025, 106.744 378.438, 106.375 383.250 L 105.705 392 108.442 392 L 111.180 392 110.488 383.750 C 110.108 379.212, 109.489 372.800, 109.114 369.500 L 108.431 363.500 107.738 369 M 401.585 374.722 C 401.204 380.100, 400.634 386.188, 400.319 388.250 C 399.781 391.759, 399.909 392, 402.313 392 C 403.726 392, 405.064 391.663, 405.287 391.250 C 405.802 390.299, 403.450 366.117, 402.778 365.444 C 402.503 365.170, 401.966 369.345, 401.585 374.722" stroke="none" fill="#fafafb" fill-rule="evenodd"/></svg>