<?xml version="1.0" standalone="no"?>
<!DOCTYPE svg PUBLIC "-//W3C//DTD SVG 20010904//EN"
 "http://www.w3.org/TR/2001/REC-SVG-20010904/DTD/svg10.dtd">
<svg version="1.0" xmlns="http://www.w3.org/2000/svg"
 width="100pt" height="100pt" viewBox="0 0 500.000000 500.000000"
 preserveAspectRatio="xMidYMid meet">

<g transform="translate(0.000000,500.000000) scale(0.100000,-0.100000)"
fill="#000000" stroke="none">
<path d="M2258 4680 c-568 -103 -1005 -542 -1110 -1115 -20 -106 -16 -391 6
-492 93 -433 353 -771 741 -965 191 -96 378 -138 609 -138 165 0 300 22 444
71 209 73 371 175 532 339 185 187 307 415 365 680 26 119 31 357 10 481 -50
298 -177 549 -383 756 -187 188 -401 308 -662 370 -149 35 -399 41 -552 13z
m477 -115 c268 -55 489 -177 675 -371 169 -176 269 -370 326 -629 21 -96 24
-336 5 -435 -30 -162 -115 -374 -198 -497 -272 -401 -769 -615 -1241 -534
-272 46 -478 149 -670 335 -179 173 -293 371 -353 611 -29 115 -37 366 -15
499 100 607 652 1061 1266 1041 69 -2 161 -11 205 -20z"/>
<path d="M2278 4183 l-3 -228 -227 -3 -228 -2 0 -220 0 -220 228 -2 227 -3 3
-220 c1 -120 6 -222 11 -225 5 -3 105 -3 222 0 l214 5 2 220 2 220 225 3 226
2 0 220 0 220 -222 2 -223 3 -5 225 -5 225 -222 3 -223 2 -2 -227z m250 -245
c15 -15 15 -43 0 -68 -19 -29 1 -38 22 -10 18 23 21 24 52 12 18 -8 77 -16
131 -19 83 -5 97 -8 95 -22 -2 -9 -14 -17 -26 -19 -13 -2 -26 -10 -29 -18 -3
-8 -13 -14 -23 -14 -10 0 -23 -7 -31 -16 -8 -10 -24 -14 -46 -12 -20 2 -34 -1
-37 -9 -3 -7 -12 -13 -21 -13 -27 0 -16 -17 15 -23 60 -12 45 -93 -22 -121
-24 -10 -27 -14 -13 -19 30 -12 15 -68 -25 -96 -19 -13 -28 -21 -19 -18 9 3
22 0 28 -6 15 -15 14 -60 -1 -75 -12 -12 -16 -42 -18 -111 0 -13 -5 -29 -10
-36 -7 -9 -6 -16 5 -25 23 -19 18 -31 -10 -20 -22 8 -25 7 -25 -14 0 -32 -10
-56 -22 -56 -6 0 -8 19 -7 44 l4 44 -27 -14 c-37 -19 -44 -18 -24 5 14 16 15
24 6 40 -6 12 -8 26 -5 32 4 5 1 16 -5 24 -7 8 -10 27 -7 42 3 17 -2 36 -15
53 -16 23 -17 30 -7 53 6 14 28 34 48 44 32 16 36 22 33 51 -2 24 -8 32 -19
30 -23 -4 -27 -23 -9 -41 14 -13 13 -17 -10 -32 -24 -16 -27 -15 -45 1 -24 21
-24 62 -2 94 14 21 14 23 1 12 -13 -10 -21 -8 -47 17 -46 43 -37 82 24 106 16
6 17 8 5 13 -8 3 -18 10 -22 16 -4 6 -23 9 -43 8 -25 -3 -37 1 -41 13 -8 19
-55 45 -83 45 -11 0 -25 8 -30 19 -10 17 -4 19 92 24 56 3 116 11 134 18 30
12 34 11 57 -14 16 -17 26 -42 29 -69 3 -38 4 -37 5 13 1 40 -2 60 -13 69 -30
25 -12 80 25 80 9 0 21 -5 28 -12z"/>
<path d="M2447 3723 c-4 -3 0 -14 9 -24 9 -10 14 -25 11 -34 -7 -18 -48 -20
-65 -3 -6 6 -14 9 -18 5 -12 -11 7 -26 41 -33 19 -3 33 -10 30 -14 -6 -10 81
0 124 14 51 16 52 36 2 23 -22 -6 -43 -8 -47 -4 -12 12 6 57 24 57 15 0 15 2
2 10 -31 20 -40 11 -40 -40 0 -43 -3 -50 -20 -50 -17 0 -20 7 -20 50 0 35 -4
50 -13 50 -8 0 -17 -3 -20 -7z"/>
<path d="M2514 3536 c1 -29 3 -33 19 -25 20 11 22 25 5 35 -8 5 -6 10 8 15 16
7 15 8 -7 8 -23 1 -25 -3 -25 -33z"/>
<path d="M2466 3421 c-3 -4 3 -16 14 -26 19 -17 21 -17 40 0 11 10 17 22 13
28 -3 6 -10 1 -14 -11 -10 -28 -29 -29 -29 -2 0 20 -14 27 -24 11z"/>
<path d="M2483 3325 c-3 -9 -3 -19 1 -22 3 -4 6 1 6 10 0 8 6 18 13 20 9 4 9
6 -1 6 -7 1 -15 -6 -19 -14z"/>
<path d="M2483 3245 c-3 -9 -3 -19 1 -22 3 -4 6 1 6 10 0 8 8 18 18 20 16 4
16 5 -1 6 -10 0 -20 -6 -24 -14z"/>
<path d="M1372 3403 c-20 -54 -22 -96 -6 -166 35 -152 109 -282 220 -387 79
-74 156 -128 360 -248 238 -141 326 -214 402 -336 l37 -59 24 53 c57 126 51
320 -12 455 -51 106 -112 167 -222 222 -121 61 -175 102 -220 168 -42 60 -71
71 -81 30 -23 -92 60 -216 180 -269 50 -22 73 -47 60 -67 -20 -34 -253 25
-380 96 -132 74 -248 244 -279 409 -22 116 -59 161 -83 99z"/>
<path d="M3583 3418 c-16 -22 -32 -70 -39 -123 -8 -62 -52 -170 -96 -233 -77
-112 -177 -180 -350 -238 -146 -49 -246 -45 -205 10 7 8 32 24 57 34 109 47
163 114 175 217 11 94 -20 98 -84 11 -47 -63 -91 -96 -210 -156 -142 -71 -221
-170 -261 -326 -24 -91 -25 -176 -5 -260 17 -72 44 -144 55 -144 4 0 15 19 26
43 25 56 171 202 259 258 39 25 120 74 180 109 346 199 485 353 547 603 20 82
21 93 7 145 -14 57 -36 76 -56 50z"/>
<path d="M2237 1496 c-107 -30 -117 -58 -117 -323 0 -242 5 -262 80 -300 60
-31 156 -32 218 -2 74 36 82 65 82 304 0 189 -1 203 -22 245 -37 73 -139 105
-241 76z m101 -312 c3 -222 -1 -244 -42 -228 -14 5 -16 32 -16 218 0 117 3
216 7 220 4 4 16 6 28 4 19 -3 20 -10 23 -214z"/>
<path d="M2641 1501 c-42 -11 -82 -40 -98 -72 -7 -13 -13 -56 -13 -94 0 -96
18 -127 116 -195 86 -61 102 -89 90 -155 -6 -30 -11 -36 -29 -33 -20 3 -22 10
-25 71 l-3 67 -74 0 -75 0 0 -72 c0 -125 46 -168 177 -168 84 0 145 26 167 69
25 48 22 186 -5 231 -25 40 -34 48 -109 97 -71 46 -80 58 -80 109 0 30 5 44
17 48 23 9 43 -19 43 -61 l0 -33 70 0 70 0 0 50 c0 96 -41 135 -152 144 -29 3
-68 1 -87 -3z"/>
<path d="M500 1176 l0 -316 75 0 74 0 3 148 3 147 24 -3 c14 -1 27 -5 30 -8 3
-3 7 -68 9 -145 l4 -139 74 0 74 0 0 128 c0 142 -8 168 -56 193 l-31 15 27 12
c38 17 50 51 50 137 0 68 -2 77 -29 107 l-29 33 -151 3 -151 3 0 -315z m210
195 c26 -49 1 -126 -39 -119 -12 3 -17 18 -19 71 -3 66 -2 67 22 67 15 0 30
-8 36 -19z"/>
<path d="M927 1193 c-21 -164 -37 -306 -37 -315 0 -16 11 -18 80 -18 l80 0 0
55 0 55 35 0 35 0 0 -55 0 -55 80 0 c76 0 80 1 80 23 0 12 -18 152 -40 312
-22 159 -40 291 -40 292 0 2 -53 3 -118 3 l-118 0 -37 -297z m178 -25 l7 -88
-27 0 -28 0 7 98 c3 53 9 120 13 147 l7 50 7 -60 c4 -33 10 -99 14 -147z"/>
<path d="M1300 1175 l0 -315 80 0 80 0 0 315 0 315 -80 0 -80 0 0 -315z"/>
<path d="M1699 1205 c-1 -157 -1 -292 -1 -300 0 -45 -1 -45 82 -45 l80 0 0
135 0 135 30 0 30 0 0 -135 0 -135 80 0 80 0 0 315 0 315 -80 0 -80 0 0 -115
0 -115 -30 0 -30 0 0 115 0 115 -80 0 -80 0 -1 -285z"/>
<path d="M2920 1175 l0 -315 75 0 74 0 3 128 3 127 65 6 c36 3 75 12 87 20 35
22 53 80 53 173 0 70 -4 88 -23 117 -35 52 -57 59 -204 59 l-133 0 0 -315z
m204 209 c12 -5 16 -21 16 -75 0 -59 -3 -70 -21 -79 -39 -21 -49 -7 -49 73 0
88 7 99 54 81z"/>
<path d="M3300 1175 l0 -315 80 0 80 0 0 315 0 315 -80 0 -80 0 0 -315z"/>
<path d="M3476 1447 c1 -79 0 -77 49 -77 l45 0 0 -255 0 -255 80 0 80 0 2 253
3 252 48 3 47 3 0 60 0 59 -177 0 -178 0 1 -43z"/>
<path d="M3906 1453 c-3 -21 -20 -146 -36 -278 -17 -132 -33 -257 -36 -277
l-6 -38 80 0 80 0 6 31 c3 17 6 42 6 55 0 20 5 24 29 24 27 0 29 -3 36 -55 l6
-55 80 0 80 0 -7 53 c-4 28 -23 169 -43 312 l-36 260 -117 3 -116 3 -6 -38z
m138 -218 c4 -49 9 -105 12 -122 6 -32 5 -33 -26 -33 l-33 0 6 48 c4 26 10 89
13 141 8 110 18 97 28 -34z"/>
<path d="M4248 1175 l-3 -315 138 0 138 0 -3 58 -3 57 -52 3 -53 3 0 255 0
254 -80 0 -79 0 -3 -315z"/>
</g>
</svg>
